<svg width="848" height="533" xmlns="http://www.w3.org/2000/svg" version="1.1"><g transform="translate(0,10)"><g><path class="link" d="M8,233.2792797335567C424,233.2792797335567 424,7.61890237506616 840,7.61890237506616" style="stroke-width: 15.2378; fill: none; stroke: rgb(46, 34, 2); stroke-opacity: 0.4;"><title>497.186282</title></path><path class="link" d="M8,246.67673788582943C424,246.67673788582943 424,29.69560581035777 840,29.69560581035777" style="stroke-width: 11.5571; fill: none; stroke: rgb(46, 34, 2); stroke-opacity: 0.4;"><title>377.090888</title></path><path class="link" d="M8,255.4219138040878C424,255.4219138040878 424,47.12002701163502 840,47.12002701163502" style="stroke-width: 5.93324; fill: none; stroke: rgb(46, 34, 2); stroke-opacity: 0.4;"><title>193.592563</title></path><path class="link" d="M8,260.2889101703228C424,260.2889101703228 424,60.66626866088891 840,60.66626866088891" style="stroke-width: 3.80075; fill: none; stroke: rgb(46, 34, 2); stroke-opacity: 0.4;"><title>124.012744</title></path><path class="link" d="M8,263.64139105875955C424,263.64139105875955 424,72.6979948323445 840,72.6979948323445" style="stroke-width: 2.90421; fill: none; stroke: rgb(46, 34, 2); stroke-opacity: 0.4;"><title>94.759912</title></path><path class="link" d="M8,266.4220757062857C424,266.4220757062857 424,84.15792476288946 840,84.15792476288946" style="stroke-width: 2.65716; fill: none; stroke: rgb(46, 34, 2); stroke-opacity: 0.4;"><title>86.699069</title></path><path class="link" d="M8,268.78588682999674C424,268.78588682999674 424,95.20098116961937 840,95.20098116961937" style="stroke-width: 2.07046; fill: none; stroke: rgb(46, 34, 2); stroke-opacity: 0.4;"><title>67.55602</title></path><path class="link" d="M8,270.377267384968C424,270.377267384968 424,105.4716070076095 840,105.4716070076095" style="stroke-width: 1.1123; fill: none; stroke: rgb(46, 34, 2); stroke-opacity: 0.4;"><title>36.292611</title></path><path class="link" d="M8,271.3814456909363C424,271.3814456909363 424,115.1550305965967 840,115.1550305965967" style="stroke-width: 1; fill: none; stroke: rgb(46, 34, 2); stroke-opacity: 0.4;"><title>29.236996</title></path><path class="link" d="M8,272.2620325664064C424,272.2620325664064 424,124.71486275508566 840,124.71486275508566" style="stroke-width: 1; fill: none; stroke: rgb(46, 34, 2); stroke-opacity: 0.4;"><title>28.227412</title></path><path class="link" d="M8,273.11167012229527C424,273.11167012229527 424,134.2437455939934 840,134.2437455939934" style="stroke-width: 1; fill: none; stroke: rgb(46, 34, 2); stroke-opacity: 0.4;"><title>27.217338</title></path><path class="link" d="M8,273.9304198539746C424,273.9304198539746 424,143.74174060869163 840,143.74174060869163" style="stroke-width: 1; fill: none; stroke: rgb(46, 34, 2); stroke-opacity: 0.4;"><title>26.211767</title></path><path class="link" d="M8,274.70292741069034C424,274.70292741069034 424,153.1934934484262 840,153.1934934484262" style="stroke-width: 1; fill: none; stroke: rgb(46, 34, 2); stroke-opacity: 0.4;"><title>24.199715</title></path><path class="link" d="M8,275.429075578862C424,275.429075578862 424,162.59888689961673 840,162.59888689961673" style="stroke-width: 1; fill: none; stroke: rgb(46, 34, 2); stroke-opacity: 0.4;"><title>23.186495</title></path><path class="link" d="M8,276.12405294910513C424,276.12405294910513 424,171.97310955287875 840,171.97310955287875" style="stroke-width: 1; fill: none; stroke: rgb(46, 34, 2); stroke-opacity: 0.4;"><title>22.165604</title></path><path class="link" d="M8,276.78806854132273C424,276.78806854132273 424,181.3163704281152 840,181.3163704281152" style="stroke-width: 1; fill: none; stroke: rgb(46, 34, 2); stroke-opacity: 0.4;"><title>21.166024</title></path><path class="link" d="M8,277.40612572914574C424,277.40612572914574 424,190.61367289895708 840,190.61367289895708" style="stroke-width: 1; fill: none; stroke: rgb(46, 34, 2); stroke-opacity: 0.4;"><title>19.166499</title></path><path class="link" d="M8,277.97797980298265C424,277.97797980298265 424,199.86477225581282 840,199.86477225581282" style="stroke-width: 1; fill: none; stroke: rgb(46, 34, 2); stroke-opacity: 0.4;"><title>18.15095</title></path><path class="link" d="M8,278.5187775341443C424,278.5187775341443 424,209.08481526999336 840,209.08481526999336" style="stroke-width: 1; fill: none; stroke: rgb(46, 34, 2); stroke-opacity: 0.4;"><title>17.139857</title></path><path class="link" d="M8,279.028679962965C424,279.028679962965 424,218.27396298183297 840,218.27396298183297" style="stroke-width: 1; fill: none; stroke: rgb(46, 34, 2); stroke-opacity: 0.4;"><title>16.134817</title></path><path class="link" d="M8,279.52315220235863C424,279.52315220235863 424,227.44768050424548 840,227.44768050424548" style="stroke-width: 1; fill: none; stroke: rgb(46, 34, 2); stroke-opacity: 0.4;"><title>16.13293</title></path><path class="link" d="M8,280.01745017677166C424,280.01745017677166 424,236.62122376167733 840,236.62122376167733" style="stroke-width: 1; fill: none; stroke: rgb(46, 34, 2); stroke-opacity: 0.4;"><title>16.123445</title></path><path class="link" d="M8,280.46537388299794C424,280.46537388299794 424,245.74839275092248 840,245.74839275092248" style="stroke-width: 1; fill: none; stroke: rgb(46, 34, 2); stroke-opacity: 0.4;"><title>13.106687</title></path><path class="link" d="M8,280.8670578507829C424,280.8670578507829 424,254.82932200172633 840,254.82932200172633" style="stroke-width: 1; fill: none; stroke: rgb(46, 34, 2); stroke-opacity: 0.4;"><title>13.105981</title></path><path class="link" d="M8,281.26864049601664C424,281.26864049601664 424,263.91014992997896 840,263.91014992997896" style="stroke-width: 1; fill: none; stroke: rgb(46, 34, 2); stroke-opacity: 0.4;"><title>13.100075</title></path><path class="link" d="M8,281.6701043492939C424,281.6701043492939 424,272.99085906627505 840,272.99085906627505" style="stroke-width: 1; fill: none; stroke: rgb(46, 34, 2); stroke-opacity: 0.4;"><title>13.098229</title></path><path class="link" d="M8,282.0563060872126C424,282.0563060872126 424,282.0563060872126 840,282.0563060872126" style="stroke-width: 1; fill: none; stroke: rgb(46, 34, 2); stroke-opacity: 0.4;"><title>12.104116</title></path><path class="link" d="M8,282.42725704956223C424,282.42725704956223 424,291.1065023325811 840,291.1065023325811" style="stroke-width: 1; fill: none; stroke: rgb(46, 34, 2); stroke-opacity: 0.4;"><title>12.10301</title></path><path class="link" d="M8,282.7826705848542C424,282.7826705848542 424,300.14116115089195 840,300.14116115089195" style="stroke-width: 1; fill: none; stroke: rgb(46, 34, 2); stroke-opacity: 0.4;"><title>11.090191</title></path><path class="link" d="M8,283.12246359082064C424,283.12246359082064 424,309.16019943987726 840,309.16019943987726" style="stroke-width: 1; fill: none; stroke: rgb(46, 34, 2); stroke-opacity: 0.4;"><title>11.083662</title></path><path class="link" d="M8,283.44681679918705C424,283.44681679918705 424,318.1637979312625 840,318.1637979312625" style="stroke-width: 1; fill: none; stroke: rgb(46, 34, 2); stroke-opacity: 0.4;"><title>10.082637</title></path><path class="link" d="M8,283.7557832311311C424,283.7557832311311 424,327.1520096462254 840,327.1520096462254" style="stroke-width: 1; fill: none; stroke: rgb(46, 34, 2); stroke-opacity: 0.4;"><title>10.079568</title></path><path class="link" d="M8,284.0646624539646C424,284.0646624539646 424,336.1401341520778 840,336.1401341520778" style="stroke-width: 1; fill: none; stroke: rgb(46, 34, 2); stroke-opacity: 0.4;"><title>10.076946</title></path><path class="link" d="M8,284.35817137371856C424,284.35817137371856 424,345.1128883548506 840,345.1128883548506" style="stroke-width: 1; fill: none; stroke: rgb(46, 34, 2); stroke-opacity: 0.4;"><title>9.076549</title></path><path class="link" d="M8,284.63623939254165C424,284.63623939254165 424,354.0702016566926 840,354.0702016566926" style="stroke-width: 1; fill: none; stroke: rgb(46, 34, 2); stroke-opacity: 0.4;"><title>9.06932</title></path><path class="link" d="M8,284.914175088281C424,284.914175088281 424,363.0273826354508 840,363.0273826354508" style="stroke-width: 1; fill: none; stroke: rgb(46, 34, 2); stroke-opacity: 0.4;"><title>9.067914</title></path><path class="link" d="M8,285.17677977177885C424,285.17677977177885 424,371.9692326019675 840,371.9692326019675" style="stroke-width: 1; fill: none; stroke: rgb(46, 34, 2); stroke-opacity: 0.4;"><title>8.068865</title></path><path class="link" d="M8,285.4240487079069C424,285.4240487079069 424,380.8957468211144 840,380.8957468211144" style="stroke-width: 1; fill: none; stroke: rgb(46, 34, 2); stroke-opacity: 0.4;"><title>8.06715</title></path><path class="link" d="M8,285.6559034069333C424,285.6559034069333 424,389.8068468031597 840,389.8068468031597" style="stroke-width: 1; fill: none; stroke: rgb(46, 34, 2); stroke-opacity: 0.4;"><title>7.062979</title></path><path class="link" d="M8,285.8723135272592C424,285.8723135272592 424,398.7025022065045 840,398.7025022065045" style="stroke-width: 1; fill: none; stroke: rgb(46, 34, 2); stroke-opacity: 0.4;"><title>7.059284</title></path><path class="link" d="M8,286.07319539962725C424,286.07319539962725 424,407.58262936189146 840,407.58262936189146" style="stroke-width: 1; fill: none; stroke: rgb(46, 34, 2); stroke-opacity: 0.4;"><title>6.049653</title></path><path class="link" d="M8,286.2585602259107C424,286.2585602259107 424,416.44723947119377 840,416.44723947119377" style="stroke-width: 1; fill: none; stroke: rgb(46, 34, 2); stroke-opacity: 0.4;"><title>6.046689</title></path><path class="link" d="M8,286.4438489070403C424,286.4438489070403 424,425.3117734353422 840,425.3117734353422" style="stroke-width: 1; fill: none; stroke: rgb(46, 34, 2); stroke-opacity: 0.4;"><title>6.044684</title></path><path class="link" d="M8,286.6137574317327C424,286.6137574317327 424,434.1609272430535 840,434.1609272430535" style="stroke-width: 1; fill: none; stroke: rgb(46, 34, 2); stroke-opacity: 0.4;"><title>5.043027</title></path><path class="link" d="M8,286.76829119405005C424,286.76829119405005 424,442.9947062883897 840,442.9947062883897" style="stroke-width: 1; fill: none; stroke: rgb(46, 34, 2); stroke-opacity: 0.4;"><title>5.041374</title></path><path class="link" d="M8,286.92277757443634C424,286.92277757443634 424,451.8284379517948 840,451.8284379517948" style="stroke-width: 1; fill: none; stroke: rgb(46, 34, 2); stroke-opacity: 0.4;"><title>5.039935</title></path><path class="link" d="M8,287.061760072088C424,287.061760072088 424,460.64666573246535 840,460.64666573246535" style="stroke-width: 1; fill: none; stroke: rgb(46, 34, 2); stroke-opacity: 0.4;"><title>4.029638</title></path><path class="link" d="M8,287.16983110053684C424,287.16983110053684 424,469.43398204393304 840,469.43398204393304" style="stroke-width: 1; fill: none; stroke: rgb(46, 34, 2); stroke-opacity: 0.4;"><title>3.022747</title></path><path class="link" d="M8,287.24700771543905C424,287.24700771543905 424,478.1904039418541 840,478.1904039418541" style="stroke-width: 1; fill: none; stroke: rgb(46, 34, 2); stroke-opacity: 0.4;"><title>2.013563</title></path><path class="link" d="M8,287.2933286099951C424,287.2933286099951 424,486.91597011942906 840,486.91597011942906" style="stroke-width: 1; fill: none; stroke: rgb(46, 34, 2); stroke-opacity: 0.4;"><title>1.009197</title></path><path class="link" d="M8,287.324208113251C424,287.324208113251 424,495.6260949057038 840,495.6260949057038" style="stroke-width: 1; fill: none; stroke: rgb(46, 34, 2); stroke-opacity: 0.4;"><title>1.005905</title></path><path class="link" d="M8,287.33962264150944C424,287.33962264150944 424,512.9999999999999 840,512.9999999999999" style="stroke-width: 1; fill: none; stroke: rgb(46, 34, 2); stroke-opacity: 0.4;"><title>0</title></path><path class="link" d="M8,287.33962264150944C424,287.33962264150944 424,504.32075471698107 840,504.32075471698107" style="stroke-width: 1; fill: none; stroke: rgb(46, 34, 2); stroke-opacity: 0.4;"><title>0</title></path></g><g><g class="node" transform="translate(840,416.35457976827905)"><rect height="0.18531940582940737" width="8" style="fill: rgb(102, 102, 102);"><title>Albacete
6</title></rect><text x="-6" y="0.09265970291470368" dy=".35em" text-anchor="end" style="font-size: 11px; font-family: Arial, Helvetica; pointer-events: none;">Albacete</text></g><g class="node" transform="translate(840,104.91545759207666)"><rect height="1.112298831065698" width="8" style="fill: rgb(102, 102, 102);"><title>Alicante/Alacant
36</title></rect><text x="-6" y="0.556149415532849" dy=".35em" text-anchor="end" style="font-size: 11px; font-family: Arial, Helvetica; pointer-events: none;">Alicante/Alacant</text></g><g class="node" transform="translate(840,190.3199647053895)"><rect height="0.5874163871351629" width="8" style="fill: rgb(102, 102, 102);"><title>Almería
19</title></rect><text x="-6" y="0.29370819356758143" dy=".35em" text-anchor="end" style="font-size: 11px; font-family: Arial, Helvetica; pointer-events: none;">Almería</text></g><g class="node" transform="translate(840,236.37414744872962)"><rect height="0.49415262589544945" width="8" style="fill: rgb(102, 102, 102);"><title>Araba/Álava
16</title></rect><text x="-6" y="0.24707631294772472" dy=".35em" text-anchor="end" style="font-size: 11px; font-family: Arial, Helvetica; pointer-events: none;">Araba/Álava</text></g><g class="node" transform="translate(840,272.7901412837252)"><rect height="0.4014355650997617" width="8" style="fill: rgb(102, 102, 102);"><title>Asturias
13</title></rect><text x="-6" y="0.20071778254988085" dy=".35em" text-anchor="end" style="font-size: 11px; font-family: Arial, Helvetica; pointer-events: none;">Asturias</text></g><g class="node" transform="translate(840,434.08364769657595)"><rect height="0.15455909295511294" width="8" style="fill: rgb(102, 102, 102);"><title>Ávila
5</title></rect><text x="-6" y="0.07727954647755647" dy=".35em" text-anchor="end" style="font-size: 11px; font-family: Arial, Helvetica; pointer-events: none;">Ávila</text></g><g class="node" transform="translate(840,290.9210353256003)"><rect height="0.3709340139615872" width="8" style="fill: rgb(102, 102, 102);"><title>Badajoz
12</title></rect><text x="-6" y="0.1854670069807936" dy=".35em" text-anchor="end" style="font-size: 11px; font-family: Arial, Helvetica; pointer-events: none;">Badajoz</text></g><g class="node" transform="translate(840,245.54754535764394)"><rect height="0.4016947865570758" width="8" style="fill: rgb(102, 102, 102);"><title>Balears Illes
13</title></rect><text x="-6" y="0.2008473932785379" dy=".35em" text-anchor="end" style="font-size: 11px; font-family: Arial, Helvetica; pointer-events: none;">Balears Illes</text></g><g class="node" transform="translate(840,58.76589243570564)"><rect height="3.80075245036654" width="8" style="fill: rgb(102, 102, 102);"><title>Barcelona
124</title></rect><text x="-6" y="1.90037622518327" dy=".35em" text-anchor="end" style="font-size: 11px; font-family: Arial, Helvetica; pointer-events: none;">Barcelona</text></g><g class="node" transform="translate(840,152.8226560525356)"><rect height="0.7416747917812537" width="8" style="fill: rgb(102, 102, 102);"><title>Bizkaia
24</title></rect><text x="-6" y="0.37083739589062686" dy=".35em" text-anchor="end" style="font-size: 11px; font-family: Arial, Helvetica; pointer-events: none;">Bizkaia</text></g><g class="node" transform="translate(840,71.24589016909104)"><rect height="2.9042093265069413" width="8" style="fill: rgb(102, 102, 102);"><title>Burgos
95</title></rect><text x="-6" y="1.4521046632534707" dy=".35em" text-anchor="end" style="font-size: 11px; font-family: Arial, Helvetica; pointer-events: none;">Burgos</text></g><g class="node" transform="translate(840,353.9312230360229)"><rect height="0.2779572413393116" width="8" style="fill: rgb(102, 102, 102);"><title>Cáceres
9</title></rect><text x="-6" y="0.1389786206696558" dy=".35em" text-anchor="end" style="font-size: 11px; font-family: Arial, Helvetica; pointer-events: none;">Cáceres</text></g><g class="node" transform="translate(840,371.8455849935394)"><rect height="0.24729521685631614" width="8" style="fill: rgb(102, 102, 102);"><title>Cádiz
8</title></rect><text x="-6" y="0.12364760842815807" dy=".35em" text-anchor="end" style="font-size: 11px; font-family: Arial, Helvetica; pointer-events: none;">Cádiz</text></g><g class="node" transform="translate(840,380.77212549341453)"><rect height="0.24724265539979048" width="8" style="fill: rgb(102, 102, 102);"><title>Cantabria
8</title></rect><text x="-6" y="0.12362132769989524" dy=".35em" text-anchor="end" style="font-size: 11px; font-family: Arial, Helvetica; pointer-events: none;">Cantabria</text></g><g class="node" transform="translate(840,208.822163419101)"><rect height="0.5253037017847303" width="8" style="fill: rgb(102, 102, 102);"><title>Castellón/Castelló
17</title></rect><text x="-6" y="0.26265185089236515" dy=".35em" text-anchor="end" style="font-size: 11px; font-family: Arial, Helvetica; pointer-events: none;">Castellón/Castelló</text></g><g class="node" transform="translate(840,512.9999999999999)"><rect height="0" width="8" style="fill: rgb(102, 102, 102);"><title>Ceuta
0</title></rect><text x="-6" y="0" dy=".35em" text-anchor="end" style="font-size: 11px; font-family: Arial, Helvetica; pointer-events: none;">Ceuta</text></g><g class="node" transform="translate(840,442.9174520725499)"><rect height="0.15450843167952294" width="8" style="fill: rgb(102, 102, 102);"><title>Ciudad Real
5</title></rect><text x="-6" y="0.07725421583976147" dy=".35em" text-anchor="end" style="font-size: 11px; font-family: Arial, Helvetica; pointer-events: none;">Ciudad Real</text></g><g class="node" transform="translate(840,335.9857146304772)"><rect height="0.30883904320116734" width="8" style="fill: rgb(102, 102, 102);"><title>Córdoba
10</title></rect><text x="-6" y="0.15441952160058367" dy=".35em" text-anchor="end" style="font-size: 11px; font-family: Arial, Helvetica; pointer-events: none;">Córdoba</text></g><g class="node" transform="translate(840,171.63344295491663)"><rect height="0.6793331959242381" width="8" style="fill: rgb(102, 102, 102);"><title>Coruña A
22</title></rect><text x="-6" y="0.33966659796211907" dy=".35em" text-anchor="end" style="font-size: 11px; font-family: Arial, Helvetica; pointer-events: none;">Coruña A</text></g><g class="node" transform="translate(840,469.38766134858946)"><rect height="0.09264139068713864" width="8" style="fill: rgb(102, 102, 102);"><title>Cuenca
3</title></rect><text x="-6" y="0.04632069534356932" dy=".35em" text-anchor="end" style="font-size: 11px; font-family: Arial, Helvetica; pointer-events: none;">Cuenca</text></g><g class="node" transform="translate(840,5.5067062021407764e-14)"><rect height="15.23780475013221" width="8" style="fill: rgb(102, 102, 102);"><title>Extranjero
497</title></rect><text x="-6" y="7.618902375066105" dy=".35em" text-anchor="end" style="font-size: 11px; font-family: Arial, Helvetica; pointer-events: none;">Extranjero</text></g><g class="node" transform="translate(840,162.2435761273357)"><rect height="0.7106215445620777" width="8" style="fill: rgb(102, 102, 102);"><title>Gipuzkoa
23</title></rect><text x="-6" y="0.35531077228103886" dy=".35em" text-anchor="end" style="font-size: 11px; font-family: Arial, Helvetica; pointer-events: none;">Gipuzkoa</text></g><g class="node" transform="translate(840,389.6986134318332)"><rect height="0.2164667426529762" width="8" style="fill: rgb(102, 102, 102);"><title>Girona
7</title></rect><text x="-6" y="0.1082333713264881" dy=".35em" text-anchor="end" style="font-size: 11px; font-family: Arial, Helvetica; pointer-events: none;">Girona</text></g><g class="node" transform="translate(840,326.99754994499244)"><rect height="0.30891940246589633" width="8" style="fill: rgb(102, 102, 102);"><title>Granada
10</title></rect><text x="-6" y="0.15445970123294817" dy=".35em" text-anchor="end" style="font-size: 11px; font-family: Arial, Helvetica; pointer-events: none;">Granada</text></g><g class="node" transform="translate(840,124.28230477005106)"><rect height="0.8651159700692204" width="8" style="fill: rgb(102, 102, 102);"><title>Guadalajara
28</title></rect><text x="-6" y="0.4325579850346102" dy=".35em" text-anchor="end" style="font-size: 11px; font-family: Arial, Helvetica; pointer-events: none;">Guadalajara</text></g><g class="node" transform="translate(840,425.2191444571273)"><rect height="0.1852579564297958" width="8" style="fill: rgb(102, 102, 102);"><title>Huelva
6</title></rect><text x="-6" y="0.0926289782148979" dy=".35em" text-anchor="end" style="font-size: 11px; font-family: Arial, Helvetica; pointer-events: none;">Huelva</text></g><g class="node" transform="translate(840,299.97121462258076)"><rect height="0.33989305662233354" width="8" style="fill: rgb(102, 102, 102);"><title>Huesca
11</title></rect><text x="-6" y="0.16994652831116677" dy=".35em" text-anchor="end" style="font-size: 11px; font-family: Arial, Helvetica; pointer-events: none;">Huesca</text></g><g class="node" transform="translate(840,495.61068037744536)"><rect height="0.030829056516852454" width="8" style="fill: rgb(102, 102, 102);"><title>Jaén
1</title></rect><text x="-6" y="0.015414528258426227" dy=".35em" text-anchor="end" style="font-size: 11px; font-family: Arial, Helvetica; pointer-events: none;">Jaén</text></g><g class="node" transform="translate(840,281.8708221318438)"><rect height="0.3709679107376323" width="8" style="fill: rgb(102, 102, 102);"><title>León
12</title></rect><text x="-6" y="0.18548395536881615" dy=".35em" text-anchor="end" style="font-size: 11px; font-family: Arial, Helvetica; pointer-events: none;">León</text></g><g class="node" transform="translate(840,308.99035296222195)"><rect height="0.3396929553105809" width="8" style="fill: rgb(102, 102, 102);"><title>Lleida
11</title></rect><text x="-6" y="0.16984647765529046" dy=".35em" text-anchor="end" style="font-size: 11px; font-family: Arial, Helvetica; pointer-events: none;">Lleida</text></g><g class="node" transform="translate(840,478.15954802229544)"><rect height="0.06171183911725558" width="8" style="fill: rgb(102, 102, 102);"><title>Lugo
2</title></rect><text x="-6" y="0.03085591955862779" dy=".35em" text-anchor="end" style="font-size: 11px; font-family: Arial, Helvetica; pointer-events: none;">Lugo</text></g><g class="node" transform="translate(840,23.917050033151135)"><rect height="11.557111554413268" width="8" style="fill: rgb(102, 102, 102);"><title>Madrid
377</title></rect><text x="-6" y="5.778555777206634" dy=".35em" text-anchor="end" style="font-size: 11px; font-family: Arial, Helvetica; pointer-events: none;">Madrid</text></g><g class="node" transform="translate(840,180.99202143385975)"><rect height="0.6486979885108985" width="8" style="fill: rgb(102, 102, 102);"><title>Málaga
21</title></rect><text x="-6" y="0.3243489942554493" dy=".35em" text-anchor="end" style="font-size: 11px; font-family: Arial, Helvetica; pointer-events: none;">Málaga</text></g><g class="node" transform="translate(840,486.9005051444316)"><rect height="0.03092994999491795" width="8" style="fill: rgb(102, 102, 102);"><title>Melilla
1</title></rect><text x="-6" y="0.015464974997458974" dy=".35em" text-anchor="end" style="font-size: 11px; font-family: Arial, Helvetica; pointer-events: none;">Melilla</text></g><g class="node" transform="translate(840,143.3400704478665)"><rect height="0.8033403216502234" width="8" style="fill: rgb(102, 102, 102);"><title>Murcia
26</title></rect><text x="-6" y="0.4016701608251117" dy=".35em" text-anchor="end" style="font-size: 11px; font-family: Arial, Helvetica; pointer-events: none;">Murcia</text></g><g class="node" transform="translate(840,94.16575003018094)"><rect height="2.070462278876847" width="8" style="fill: rgb(102, 102, 102);"><title>Navarra
68</title></rect><text x="-6" y="1.0352311394384235" dy=".35em" text-anchor="end" style="font-size: 11px; font-family: Arial, Helvetica; pointer-events: none;">Navarra</text></g><g class="node" transform="translate(840,460.5849153993601)"><rect height="0.12350066621048339" width="8" style="fill: rgb(102, 102, 102);"><title>Ourense
4</title></rect><text x="-6" y="0.061750333105241695" dy=".35em" text-anchor="end" style="font-size: 11px; font-family: Arial, Helvetica; pointer-events: none;">Ourense</text></g><g class="node" transform="translate(840,199.58662637554355)"><rect height="0.5562917605385828" width="8" style="fill: rgb(102, 102, 102);"><title>Palencia
18</title></rect><text x="-6" y="0.2781458802692914" dy=".35em" text-anchor="end" style="font-size: 11px; font-family: Arial, Helvetica; pointer-events: none;">Palencia</text></g><g class="node" transform="translate(840,407.4899242385228)"><rect height="0.18541024673736187" width="8" style="fill: rgb(102, 102, 102);"><title>Palmas Las
6</title></rect><text x="-6" y="0.09270512336868093" dy=".35em" text-anchor="end" style="font-size: 11px; font-family: Arial, Helvetica; pointer-events: none;">Palmas Las</text></g><g class="node" transform="translate(840,318.0092912005514)"><rect height="0.3090134614222095" width="8" style="fill: rgb(102, 102, 102);"><title>Pontevedra
10</title></rect><text x="-6" y="0.15450673071110474" dy=".35em" text-anchor="end" style="font-size: 11px; font-family: Arial, Helvetica; pointer-events: none;">Pontevedra</text></g><g class="node" transform="translate(840,82.82934477861684)"><rect height="2.6571599685452307" width="8" style="fill: rgb(102, 102, 102);"><title>Rioja La
87</title></rect><text x="-6" y="1.3285799842726154" dy=".35em" text-anchor="end" style="font-size: 11px; font-family: Arial, Helvetica; pointer-events: none;">Rioja La</text></g><g class="node" transform="translate(840,344.97379895669724)"><rect height="0.278178796306789" width="8" style="fill: rgb(102, 102, 102);"><title>Salamanca
9</title></rect><text x="-6" y="0.1390893981533945" dy=".35em" text-anchor="end" style="font-size: 11px; font-family: Arial, Helvetica; pointer-events: none;">Salamanca</text></g><g class="node" transform="translate(840,227.20045884278022)"><rect height="0.49444332293051974" width="8" style="fill: rgb(102, 102, 102);"><title>Santa Cruz de Tenerife
16</title></rect><text x="-6" y="0.24722166146525987" dy=".35em" text-anchor="end" style="font-size: 11px; font-family: Arial, Helvetica; pointer-events: none;">Santa Cruz de Tenerife</text></g><g class="node" transform="translate(840,218.0267124039046)"><rect height="0.49450115585673776" width="8" style="fill: rgb(102, 102, 102);"><title>Segovia
16</title></rect><text x="-6" y="0.24725057792836888" dy=".35em" text-anchor="end" style="font-size: 11px; font-family: Arial, Helvetica; pointer-events: none;">Segovia</text></g><g class="node" transform="translate(840,451.7512057872483)"><rect height="0.15446432909296878" width="8" style="fill: rgb(102, 102, 102);"><title>Sevilla
5</title></rect><text x="-6" y="0.07723216454648439" dy=".35em" text-anchor="end" style="font-size: 11px; font-family: Arial, Helvetica; pointer-events: none;">Sevilla</text></g><g class="node" transform="translate(840,504.32075471698107)"><rect height="0" width="8" style="fill: rgb(102, 102, 102);"><title>Soria
0</title></rect><text x="-6" y="0" dy=".35em" text-anchor="end" style="font-size: 11px; font-family: Arial, Helvetica; pointer-events: none;">Soria</text></g><g class="node" transform="translate(840,254.62848542721989)"><rect height="0.4016731490128734" width="8" style="fill: rgb(102, 102, 102);"><title>Tarragona
13</title></rect><text x="-6" y="0.2008365745064367" dy=".35em" text-anchor="end" style="font-size: 11px; font-family: Arial, Helvetica; pointer-events: none;">Tarragona</text></g><g class="node" transform="translate(840,362.8884255603811)"><rect height="0.27791415013938453" width="8" style="fill: rgb(102, 102, 102);"><title>Teruel
9</title></rect><text x="-6" y="0.13895707506969227" dy=".35em" text-anchor="end" style="font-size: 11px; font-family: Arial, Helvetica; pointer-events: none;">Teruel</text></g><g class="node" transform="translate(840,263.7094038592516)"><rect height="0.4014921414547158" width="8" style="fill: rgb(102, 102, 102);"><title>Toledo
13</title></rect><text x="-6" y="0.2007460707273579" dy=".35em" text-anchor="end" style="font-size: 11px; font-family: Arial, Helvetica; pointer-events: none;">Toledo</text></g><g class="node" transform="translate(840,114.70700170616124)"><rect height="0.8960577808709461" width="8" style="fill: rgb(102, 102, 102);"><title>Valencia/València
29</title></rect><text x="-6" y="0.44802889043547306" dy=".35em" text-anchor="end" style="font-size: 11px; font-family: Arial, Helvetica; pointer-events: none;">Valencia/València</text></g><g class="node" transform="translate(840,133.82666602313915)"><rect height="0.8341591417084873" width="8" style="fill: rgb(102, 102, 102);"><title>Valladolid
27</title></rect><text x="-6" y="0.41707957085424363" dy=".35em" text-anchor="end" style="font-size: 11px; font-family: Arial, Helvetica; pointer-events: none;">Valladolid</text></g><g class="node" transform="translate(840,398.5943254575051)"><rect height="0.21635349799882916" width="8" style="fill: rgb(102, 102, 102);"><title>Zamora
7</title></rect><text x="-6" y="0.10817674899941458" dy=".35em" text-anchor="end" style="font-size: 11px; font-family: Arial, Helvetica; pointer-events: none;">Zamora</text></g><g class="node" transform="translate(840,44.15340687058327)"><rect height="5.933240282103498" width="8" style="fill: rgb(102, 102, 102);"><title>Zaragoza
194</title></rect><text x="-6" y="2.966620141051749" dy=".35em" text-anchor="end" style="font-size: 11px; font-family: Arial, Helvetica; pointer-events: none;">Zaragoza</text></g><g class="node" transform="translate(0,225.6603773584906)"><rect height="61.6792452830188" width="8"><title>    Soria
2,012</title></rect><text x="14" y="30.8396226415094" dy=".35em" text-anchor="start" style="font-size: 11px; font-family: Arial, Helvetica; pointer-events: none;">    Soria</text></g></g></g></svg>