<svg width="848" height="533" xmlns="http://www.w3.org/2000/svg" version="1.1"><g transform="translate(0,10)"><g><path class="link" d="M8,231.77847822360548C424,231.77847822360548 424,6.118100865114951 840,6.118100865114951" style="stroke-width: 12.2362; fill: none; stroke: rgb(46, 34, 2); stroke-opacity: 0.4;"><title>378.43308</title></path><path class="link" d="M8,243.6574737193861C424,243.6574737193861 424,26.67634164391444 840,26.67634164391444" style="stroke-width: 11.5218; fill: none; stroke: rgb(46, 34, 2); stroke-opacity: 0.4;"><title>356.338208</title></path><path class="link" d="M8,253.13070019543474C424,253.13070019543474 424,44.82881340298196 840,44.82881340298196" style="stroke-width: 7.42466; fill: none; stroke: rgb(46, 34, 2); stroke-opacity: 0.4;"><title>229.625043</title></path><path class="link" d="M8,258.3550185152987C424,258.3550185152987 424,58.7323770058648 840,58.7323770058648" style="stroke-width: 3.02397; fill: none; stroke: rgb(46, 34, 2); stroke-opacity: 0.4;"><title>93.523417</title></path><path class="link" d="M8,261.22633342325094C424,261.22633342325094 424,70.28293719683585 840,70.28293719683585" style="stroke-width: 2.71866; fill: none; stroke: rgb(46, 34, 2); stroke-opacity: 0.4;"><title>84.080805</title></path><path class="link" d="M8,263.8259330777864C424,263.8259330777864 424,81.5617821343902 840,81.5617821343902" style="stroke-width: 2.48054; fill: none; stroke: rgb(46, 34, 2); stroke-opacity: 0.4;"><title>76.716561</title></path><path class="link" d="M8,266.1796688030966C424,266.1796688030966 424,92.59476314271927 840,92.59476314271927" style="stroke-width: 2.22693; fill: none; stroke: rgb(46, 34, 2); stroke-opacity: 0.4;"><title>68.872974</title></path><path class="link" d="M8,268.00169022760156C424,268.00169022760156 424,103.0960298502431 840,103.0960298502431" style="stroke-width: 1.41711; fill: none; stroke: rgb(46, 34, 2); stroke-opacity: 0.4;"><title>43.827551</title></path><path class="link" d="M8,269.38551196319935C424,269.38551196319935 424,113.15909686885978 840,113.15909686885978" style="stroke-width: 1.35053; fill: none; stroke: rgb(46, 34, 2); stroke-opacity: 0.4;"><title>41.768279</title></path><path class="link" d="M8,270.61715434439816C424,270.61715434439816 424,123.06998453307745 840,123.06998453307745" style="stroke-width: 1.11276; fill: none; stroke: rgb(46, 34, 2); stroke-opacity: 0.4;"><title>34.414548</title></path><path class="link" d="M8,271.7089515419333C424,271.7089515419333 424,132.84102701363145 840,132.84102701363145" style="stroke-width: 1.07084; fill: none; stroke: rgb(46, 34, 2); stroke-opacity: 0.4;"><title>33.118202</title></path><path class="link" d="M8,272.7011739379395C424,272.7011739379395 424,142.5124946926565 840,142.5124946926565" style="stroke-width: 1; fill: none; stroke: rgb(46, 34, 2); stroke-opacity: 0.4;"><title>28.255382</title></path><path class="link" d="M8,273.55290489344844C424,273.55290489344844 424,152.04347093118434 840,152.04347093118434" style="stroke-width: 1; fill: none; stroke: rgb(46, 34, 2); stroke-opacity: 0.4;"><title>24.428151</title></path><path class="link" d="M8,274.3275913124937C424,274.3275913124937 424,161.49740263324844 840,161.49740263324844" style="stroke-width: 1; fill: none; stroke: rgb(46, 34, 2); stroke-opacity: 0.4;"><title>23.489818</title></path><path class="link" d="M8,275.086817959853C424,275.086817959853 424,170.93587456362667 840,170.93587456362667" style="stroke-width: 1; fill: none; stroke: rgb(46, 34, 2); stroke-opacity: 0.4;"><title>23.471892</title></path><path class="link" d="M8,275.80624109366323C424,275.80624109366323 424,180.33454298045572 840,180.33454298045572" style="stroke-width: 1; fill: none; stroke: rgb(46, 34, 2); stroke-opacity: 0.4;"><title>21.027785</title></path><path class="link" d="M8,276.4836776934551C424,276.4836776934551 424,189.69122486326648 840,189.69122486326648" style="stroke-width: 1; fill: none; stroke: rgb(46, 34, 2); stroke-opacity: 0.4;"><title>20.874829</title></path><path class="link" d="M8,277.1379481990177C424,277.1379481990177 424,199.024740651848 840,199.024740651848" style="stroke-width: 1; fill: none; stroke: rgb(46, 34, 2); stroke-opacity: 0.4;"><title>19.594854</title></path><path class="link" d="M8,277.7630201793379C424,277.7630201793379 424,208.32905791518706 840,208.32905791518706" style="stroke-width: 1; fill: none; stroke: rgb(46, 34, 2); stroke-opacity: 0.4;"><title>19.068764</title></path><path class="link" d="M8,278.35314016376833C424,278.35314016376833 424,217.5984231826363 840,217.5984231826363" style="stroke-width: 1; fill: none; stroke: rgb(46, 34, 2); stroke-opacity: 0.4;"><title>17.43291</title></path><path class="link" d="M8,278.9063574182806C424,278.9063574182806 424,226.83088572016743 840,226.83088572016743" style="stroke-width: 1; fill: none; stroke: rgb(46, 34, 2); stroke-opacity: 0.4;"><title>16.786158</title></path><path class="link" d="M8,279.44870563002917C424,279.44870563002917 424,236.0524792149349 840,236.0524792149349" style="stroke-width: 1; fill: none; stroke: rgb(46, 34, 2); stroke-opacity: 0.4;"><title>16.760609</title></path><path class="link" d="M8,279.97676313308654C424,279.97676313308654 424,245.2597820010111 840,245.2597820010111" style="stroke-width: 1; fill: none; stroke: rgb(46, 34, 2); stroke-opacity: 0.4;"><title>15.902211</title></path><path class="link" d="M8,280.4585883754756C424,280.4585883754756 424,254.42085252641903 840,254.42085252641903" style="stroke-width: 1; fill: none; stroke: rgb(46, 34, 2); stroke-opacity: 0.4;"><title>13.900928</title></path><path class="link" d="M8,280.9036506187168C424,280.9036506187168 424,263.54516005267914 840,263.54516005267914" style="stroke-width: 1; fill: none; stroke: rgb(46, 34, 2); stroke-opacity: 0.4;"><title>13.628248</title></path><path class="link" d="M8,281.3280350844916C424,281.3280350844916 424,272.6487898014728 840,272.6487898014728" style="stroke-width: 1; fill: none; stroke: rgb(46, 34, 2); stroke-opacity: 0.4;"><title>12.621911</title></path><path class="link" d="M8,281.7232068951277C424,281.7232068951277 424,281.7232068951277 840,281.7232068951277" style="stroke-width: 1; fill: none; stroke: rgb(46, 34, 2); stroke-opacity: 0.4;"><title>11.821309</title></path><path class="link" d="M8,282.1051446999082C424,282.1051446999082 424,290.78438998292705 840,290.78438998292705" style="stroke-width: 1; fill: none; stroke: rgb(46, 34, 2); stroke-opacity: 0.4;"><title>11.803326</title></path><path class="link" d="M8,282.47910726144266C424,282.47910726144266 424,299.8375978274803 840,299.8375978274803" style="stroke-width: 1; fill: none; stroke: rgb(46, 34, 2); stroke-opacity: 0.4;"><title>11.328003</title></path><path class="link" d="M8,282.8381612304133C424,282.8381612304133 424,308.87589707946984 840,308.87589707946984" style="stroke-width: 1; fill: none; stroke: rgb(46, 34, 2); stroke-opacity: 0.4;"><title>10.88116</title></path><path class="link" d="M8,283.1890541981196C424,283.1890541981196 424,317.90603533019504 840,317.90603533019504" style="stroke-width: 1; fill: none; stroke: rgb(46, 34, 2); stroke-opacity: 0.4;"><title>10.823207</title></path><path class="link" d="M8,283.5249287674782C424,283.5249287674782 424,326.9211551825725 840,326.9211551825725" style="stroke-width: 1; fill: none; stroke: rgb(46, 34, 2); stroke-opacity: 0.4;"><title>9.952202</title></path><path class="link" d="M8,283.84587194890247C424,283.84587194890247 424,335.92134364701565 840,335.92134364701565" style="stroke-width: 1; fill: none; stroke: rgb(46, 34, 2); stroke-opacity: 0.4;"><title>9.899631</title></path><path class="link" d="M8,284.1657400941933C424,284.1657400941933 424,344.9204570753254 840,344.9204570753254" style="stroke-width: 1; fill: none; stroke: rgb(46, 34, 2); stroke-opacity: 0.4;"><title>9.885706</title></path><path class="link" d="M8,284.4830704680845C424,284.4830704680845 424,353.91703273223544 840,353.91703273223544" style="stroke-width: 1; fill: none; stroke: rgb(46, 34, 2); stroke-opacity: 0.4;"><title>9.742658</title></path><path class="link" d="M8,284.7783071971712C424,284.7783071971712 424,362.891514744341 840,362.891514744341" style="stroke-width: 1; fill: none; stroke: rgb(46, 34, 2); stroke-opacity: 0.4;"><title>8.519111</title></path><path class="link" d="M8,285.0440113599215C424,285.0440113599215 424,371.8364641901102 840,371.8364641901102" style="stroke-width: 1; fill: none; stroke: rgb(46, 34, 2); stroke-opacity: 0.4;"><title>7.915931</title></path><path class="link" d="M8,285.29881742793606C424,285.29881742793606 424,380.7705155411436 840,380.7705155411436" style="stroke-width: 1; fill: none; stroke: rgb(46, 34, 2); stroke-opacity: 0.4;"><title>7.845013</title></path><path class="link" d="M8,285.5500405649028C424,285.5500405649028 424,389.7009839611293 840,389.7009839611293" style="stroke-width: 1; fill: none; stroke: rgb(46, 34, 2); stroke-opacity: 0.4;"><title>7.69431</title></path><path class="link" d="M8,285.78676958087334C424,285.78676958087334 424,398.6169582601187 840,398.6169582601187" style="stroke-width: 1; fill: none; stroke: rgb(46, 34, 2); stroke-opacity: 0.4;"><title>6.948484</title></path><path class="link" d="M8,286.0091613758969C424,286.0091613758969 424,407.51859533816105 840,407.51859533816105" style="stroke-width: 1; fill: none; stroke: rgb(46, 34, 2); stroke-opacity: 0.4;"><title>6.807486</title></path><path class="link" d="M8,286.2292678946233C424,286.2292678946233 424,416.41794713990635 840,416.41794713990635" style="stroke-width: 1; fill: none; stroke: rgb(46, 34, 2); stroke-opacity: 0.4;"><title>6.807129</title></path><path class="link" d="M8,286.4493431141745C424,286.4493431141745 424,425.3172676424764 840,425.3172676424764" style="stroke-width: 1; fill: none; stroke: rgb(46, 34, 2); stroke-opacity: 0.4;"><title>6.80555</title></path><path class="link" d="M8,286.6681465137282C424,286.6681465137282 424,434.21531632504895 840,434.21531632504895" style="stroke-width: 1; fill: none; stroke: rgb(46, 34, 2); stroke-opacity: 0.4;"><title>6.728461</title></path><path class="link" d="M8,286.853978932079C424,286.853978932079 424,443.0803940264186 840,443.0803940264186" style="stroke-width: 1; fill: none; stroke: rgb(46, 34, 2); stroke-opacity: 0.4;"><title>4.766141</title></path><path class="link" d="M8,286.9944522817823C424,286.9944522817823 424,451.9001126591408 840,451.9001126591408" style="stroke-width: 1; fill: none; stroke: rgb(46, 34, 2); stroke-opacity: 0.4;"><title>3.922791</title></path><path class="link" d="M8,287.12039793177706C424,287.12039793177706 424,460.70530359215445 840,460.70530359215445" style="stroke-width: 1; fill: none; stroke: rgb(46, 34, 2); stroke-opacity: 0.4;"><title>3.867535</title></path><path class="link" d="M8,287.21440717087836C424,287.21440717087836 424,469.4785581142747 840,469.4785581142747" style="stroke-width: 1; fill: none; stroke: rgb(46, 34, 2); stroke-opacity: 0.4;"><title>1.947375</title></path><path class="link" d="M8,287.26198455240177C424,287.26198455240177 424,478.20538077881696 840,478.20538077881696" style="stroke-width: 1; fill: none; stroke: rgb(46, 34, 2); stroke-opacity: 0.4;"><title>0.995508</title></path><path class="link" d="M8,287.29398480649917C424,287.29398480649917 424,486.91662631593323 840,486.91662631593323" style="stroke-width: 1; fill: none; stroke: rgb(46, 34, 2); stroke-opacity: 0.4;"><title>0.983857</title></path><path class="link" d="M8,287.32475669730525C424,287.32475669730525 424,495.6266434897581 840,495.6266434897581" style="stroke-width: 1; fill: none; stroke: rgb(46, 34, 2); stroke-opacity: 0.4;"><title>0.919528</title></path><path class="link" d="M8,287.3396226415094C424,287.3396226415094 424,504.3207547169812 840,504.3207547169812" style="stroke-width: 1; fill: none; stroke: rgb(46, 34, 2); stroke-opacity: 0.4;"><title>0</title></path><path class="link" d="M8,287.3396226415094C424,287.3396226415094 424,513 840,513" style="stroke-width: 1; fill: none; stroke: rgb(46, 34, 2); stroke-opacity: 0.4;"><title>0</title></path></g><g><g class="node" transform="translate(840,469.4470750402469)"><rect height="0.06296614805557232" width="8" style="fill: rgb(102, 102, 102);"><title>Albacete
2</title></rect><text x="-6" y="0.03148307402778616" dy=".35em" text-anchor="end" style="font-size: 11px; font-family: Arial, Helvetica; pointer-events: none;">Albacete</text></g><g class="node" transform="translate(840,122.51360696721736)"><rect height="1.1127551317201876" width="8" style="fill: rgb(102, 102, 102);"><title>Alicante/Alacant
34</title></rect><text x="-6" y="0.5563775658600938" dy=".35em" text-anchor="end" style="font-size: 11px; font-family: Arial, Helvetica; pointer-events: none;">Alicante/Alacant</text></g><g class="node" transform="translate(840,208.02077455495578)"><rect height="0.6165667204625547" width="8" style="fill: rgb(102, 102, 102);"><title>Almería
19</title></rect><text x="-6" y="0.30828336023127734" dy=".35em" text-anchor="end" style="font-size: 11px; font-family: Arial, Helvetica; pointer-events: none;">Almería</text></g><g class="node" transform="translate(840,362.7537868787456)"><rect height="0.2754557311908876" width="8" style="fill: rgb(102, 102, 102);"><title>Araba/Álava
9</title></rect><text x="-6" y="0.1377278655954438" dy=".35em" text-anchor="end" style="font-size: 11px; font-family: Arial, Helvetica; pointer-events: none;">Araba/Álava</text></g><g class="node" transform="translate(840,290.593566445482)"><rect height="0.3816470748901399" width="8" style="fill: rgb(102, 102, 102);"><title>Asturias
12</title></rect><text x="-6" y="0.19082353744506994" dy=".35em" text-anchor="end" style="font-size: 11px; font-family: Arial, Helvetica; pointer-events: none;">Asturias</text></g><g class="node" transform="translate(840,344.7606355649255)"><rect height="0.3196430207997225" width="8" style="fill: rgb(102, 102, 102);"><title>Ávila
10</title></rect><text x="-6" y="0.15982151039986126" dy=".35em" text-anchor="end" style="font-size: 11px; font-family: Arial, Helvetica; pointer-events: none;">Ávila</text></g><g class="node" transform="translate(840,335.7612970121247)"><rect height="0.320093269781903" width="8" style="fill: rgb(102, 102, 102);"><title>Badajoz
10</title></rect><text x="-6" y="0.1600466348909515" dy=".35em" text-anchor="end" style="font-size: 11px; font-family: Arial, Helvetica; pointer-events: none;">Badajoz</text></g><g class="node" transform="translate(840,179.99458826613753)"><rect height="0.6799094286363658" width="8" style="fill: rgb(102, 102, 102);"><title>Balears Illes
21</title></rect><text x="-6" y="0.3399547143181829" dy=".35em" text-anchor="end" style="font-size: 11px; font-family: Arial, Helvetica; pointer-events: none;">Balears Illes</text></g><g class="node" transform="translate(840,57.22039053138376)"><rect height="3.023972948962079" width="8" style="fill: rgb(102, 102, 102);"><title>Barcelona
94</title></rect><text x="-6" y="1.5119864744810394" dy=".35em" text-anchor="end" style="font-size: 11px; font-family: Arial, Helvetica; pointer-events: none;">Barcelona</text></g><g class="node" transform="translate(840,142.05569192832536)"><rect height="0.9136055286623034" width="8" style="fill: rgb(102, 102, 102);"><title>Bizkaia
28</title></rect><text x="-6" y="0.4568027643311517" dy=".35em" text-anchor="end" style="font-size: 11px; font-family: Arial, Helvetica; pointer-events: none;">Bizkaia</text></g><g class="node" transform="translate(840,68.92360876336471)"><rect height="2.718656866942271" width="8" style="fill: rgb(102, 102, 102);"><title>Burgos
84</title></rect><text x="-6" y="1.3593284334711355" dy=".35em" text-anchor="end" style="font-size: 11px; font-family: Arial, Helvetica; pointer-events: none;">Burgos</text></g><g class="node" transform="translate(840,371.70848789295536)"><rect height="0.25595259430961914" width="8" style="fill: rgb(102, 102, 102);"><title>Cáceres
8</title></rect><text x="-6" y="0.12797629715480957" dy=".35em" text-anchor="end" style="font-size: 11px; font-family: Arial, Helvetica; pointer-events: none;">Cáceres</text></g><g class="node" transform="translate(840,189.35374297779276)"><rect height="0.6749637709474315" width="8" style="fill: rgb(102, 102, 102);"><title>Cádiz
21</title></rect><text x="-6" y="0.33748188547371577" dy=".35em" text-anchor="end" style="font-size: 11px; font-family: Arial, Helvetica; pointer-events: none;">Cádiz</text></g><g class="node" transform="translate(840,254.1961172056519)"><rect height="0.44947064153429656" width="8" style="fill: rgb(102, 102, 102);"><title>Cantabria
14</title></rect><text x="-6" y="0.22473532076714828" dy=".35em" text-anchor="end" style="font-size: 11px; font-family: Arial, Helvetica; pointer-events: none;">Cantabria</text></g><g class="node" transform="translate(840,308.69998213458854)"><rect height="0.3518298897625631" width="8" style="fill: rgb(102, 102, 102);"><title>Castellón/Castelló
11</title></rect><text x="-6" y="0.17591494488128154" dy=".35em" text-anchor="end" style="font-size: 11px; font-family: Arial, Helvetica; pointer-events: none;">Castellón/Castelló</text></g><g class="node" transform="translate(840,478.18928647132134)"><rect height="0.03218861499120954" width="8" style="fill: rgb(102, 102, 102);"><title>Ceuta
1</title></rect><text x="-6" y="0.01609430749560477" dy=".35em" text-anchor="end" style="font-size: 11px; font-family: Arial, Helvetica; pointer-events: none;">Ceuta</text></g><g class="node" transform="translate(840,389.5765905950222)"><rect height="0.24878673221411932" width="8" style="fill: rgb(102, 102, 102);"><title>Ciudad Real
8</title></rect><text x="-6" y="0.12439336610705966" dy=".35em" text-anchor="end" style="font-size: 11px; font-family: Arial, Helvetica; pointer-events: none;">Ciudad Real</text></g><g class="node" transform="translate(840,513)"><rect height="0" width="8" style="fill: rgb(102, 102, 102);"><title>Córdoba
0</title></rect><text x="-6" y="0" dy=".35em" text-anchor="end" style="font-size: 11px; font-family: Arial, Helvetica; pointer-events: none;">Córdoba</text></g><g class="node" transform="translate(840,443.00334016163663)"><rect height="0.15410772956402002" width="8" style="fill: rgb(102, 102, 102);"><title>Coruña A
5</title></rect><text x="-6" y="0.07705386478201001" dy=".35em" text-anchor="end" style="font-size: 11px; font-family: Arial, Helvetica; pointer-events: none;">Coruña A</text></g><g class="node" transform="translate(840,495.61177754555393)"><rect height="0.029731888408367317" width="8" style="fill: rgb(102, 102, 102);"><title>Cuenca
1</title></rect><text x="-6" y="0.014865944204183659" dy=".35em" text-anchor="end" style="font-size: 11px; font-family: Arial, Helvetica; pointer-events: none;">Cuenca</text></g><g class="node" transform="translate(840,20.915447013248716)"><rect height="11.521789261331445" width="8" style="fill: rgb(102, 102, 102);"><title>Extranjero
356</title></rect><text x="-6" y="5.760894630665723" dy=".35em" text-anchor="end" style="font-size: 11px; font-family: Arial, Helvetica; pointer-events: none;">Extranjero</text></g><g class="node" transform="translate(840,161.11764440538107)"><rect height="0.7595164557347442" width="8" style="fill: rgb(102, 102, 102);"><title>Gipuzkoa
23</title></rect><text x="-6" y="0.3797582278673721" dy=".35em" text-anchor="end" style="font-size: 11px; font-family: Arial, Helvetica; pointer-events: none;">Gipuzkoa</text></g><g class="node" transform="translate(840,353.7595238687441)"><rect height="0.3150177269826336" width="8" style="fill: rgb(102, 102, 102);"><title>Girona
10</title></rect><text x="-6" y="0.1575088634913168" dy=".35em" text-anchor="end" style="font-size: 11px; font-family: Arial, Helvetica; pointer-events: none;">Girona</text></g><g class="node" transform="translate(840,326.76025863603905)"><rect height="0.32179309306680165" width="8" style="fill: rgb(102, 102, 102);"><title>Granada
10</title></rect><text x="-6" y="0.16089654653340082" dy=".35em" text-anchor="end" style="font-size: 11px; font-family: Arial, Helvetica; pointer-events: none;">Granada</text></g><g class="node" transform="translate(840,132.3056073819564)"><rect height="1.0708392633500743" width="8" style="fill: rgb(102, 102, 102);"><title>Guadalajara
33</title></rect><text x="-6" y="0.5354196316750371" dy=".35em" text-anchor="end" style="font-size: 11px; font-family: Arial, Helvetica; pointer-events: none;">Guadalajara</text></g><g class="node" transform="translate(840,380.64368577028387)"><rect height="0.25365954171943744" width="8" style="fill: rgb(102, 102, 102);"><title>Huelva
8</title></rect><text x="-6" y="0.12682977085971872" dy=".35em" text-anchor="end" style="font-size: 11px; font-family: Arial, Helvetica; pointer-events: none;">Huelva</text></g><g class="node" transform="translate(840,299.654458803391)"><rect height="0.36627804817868537" width="8" style="fill: rgb(102, 102, 102);"><title>Huesca
11</title></rect><text x="-6" y="0.18313902408934268" dy=".35em" text-anchor="end" style="font-size: 11px; font-family: Arial, Helvetica; pointer-events: none;">Huesca</text></g><g class="node" transform="translate(840,398.5046226102552)"><rect height="0.22467129972695313" width="8" style="fill: rgb(102, 102, 102);"><title>Jaén
7</title></rect><text x="-6" y="0.11233564986347656" dy=".35em" text-anchor="end" style="font-size: 11px; font-family: Arial, Helvetica; pointer-events: none;">Jaén</text></g><g class="node" transform="translate(840,198.70795203175908)"><rect height="0.6335772401778412" width="8" style="fill: rgb(102, 102, 102);"><title>León
20</title></rect><text x="-6" y="0.3167886200889206" dy=".35em" text-anchor="end" style="font-size: 11px; font-family: Arial, Helvetica; pointer-events: none;">León</text></g><g class="node" transform="translate(840,416.30789676634004)"><rect height="0.22010074713261693" width="8" style="fill: rgb(102, 102, 102);"><title>Lleida
7</title></rect><text x="-6" y="0.11005037356630847" dy=".35em" text-anchor="end" style="font-size: 11px; font-family: Arial, Helvetica; pointer-events: none;">Lleida</text></g><g class="node" transform="translate(840,451.83669317421953)"><rect height="0.12683896984251447" width="8" style="fill: rgb(102, 102, 102);"><title>Lugo
4</title></rect><text x="-6" y="0.06341948492125724" dy=".35em" text-anchor="end" style="font-size: 11px; font-family: Arial, Helvetica; pointer-events: none;">Lugo</text></g><g class="node" transform="translate(840,5.5067062021407764e-14)"><rect height="12.236201730229793" width="8" style="fill: rgb(102, 102, 102);"><title>Madrid
378</title></rect><text x="-6" y="6.118100865114896" dy=".35em" text-anchor="end" style="font-size: 11px; font-family: Arial, Helvetica; pointer-events: none;">Madrid</text></g><g class="node" transform="translate(840,217.3165865584372)"><rect height="0.5636732483982115" width="8" style="fill: rgb(102, 102, 102);"><title>Málaga
17</title></rect><text x="-6" y="0.28183662419910577" dy=".35em" text-anchor="end" style="font-size: 11px; font-family: Arial, Helvetica; pointer-events: none;">Málaga</text></g><g class="node" transform="translate(840,486.9007203693314)"><rect height="0.03181189320367737" width="8" style="fill: rgb(102, 102, 102);"><title>Melilla
1</title></rect><text x="-6" y="0.015905946601838684" dy=".35em" text-anchor="end" style="font-size: 11px; font-family: Arial, Helvetica; pointer-events: none;">Melilla</text></g><g class="node" transform="translate(840,151.64854274000652)"><rect height="0.7898563823556721" width="8" style="fill: rgb(102, 102, 102);"><title>Murcia
24</title></rect><text x="-6" y="0.39492819117783606" dy=".35em" text-anchor="end" style="font-size: 11px; font-family: Arial, Helvetica; pointer-events: none;">Murcia</text></g><g class="node" transform="translate(840,91.4812986384734)"><rect height="2.22692900849173" width="8" style="fill: rgb(102, 102, 102);"><title>Navarra
69</title></rect><text x="-6" y="1.113464504245865" dy=".35em" text-anchor="end" style="font-size: 11px; font-family: Arial, Helvetica; pointer-events: none;">Navarra</text></g><g class="node" transform="translate(840,425.2072427964915)"><rect height="0.22004969196975424" width="8" style="fill: rgb(102, 102, 102);"><title>Ourense
7</title></rect><text x="-6" y="0.11002484598487712" dy=".35em" text-anchor="end" style="font-size: 11px; font-family: Arial, Helvetica; pointer-events: none;">Ourense</text></g><g class="node" transform="translate(840,245.0026920793892)"><rect height="0.5141798432438286" width="8" style="fill: rgb(102, 102, 102);"><title>Palencia
16</title></rect><text x="-6" y="0.2570899216219143" dy=".35em" text-anchor="end" style="font-size: 11px; font-family: Arial, Helvetica; pointer-events: none;">Palencia</text></g><g class="node" transform="translate(840,235.7815116334995)"><rect height="0.5419351628708172" width="8" style="fill: rgb(102, 102, 102);"><title>Palmas Las
17</title></rect><text x="-6" y="0.2709675814354086" dy=".35em" text-anchor="end" style="font-size: 11px; font-family: Arial, Helvetica; pointer-events: none;">Palmas Las</text></g><g class="node" transform="translate(840,460.64277742708094)"><rect height="0.12505233014704814" width="8" style="fill: rgb(102, 102, 102);"><title>Pontevedra
4</title></rect><text x="-6" y="0.06252616507352407" dy=".35em" text-anchor="end" style="font-size: 11px; font-family: Arial, Helvetica; pointer-events: none;">Pontevedra</text></g><g class="node" transform="translate(840,80.32151091332585)"><rect height="2.4805424421286832" width="8" style="fill: rgb(102, 102, 102);"><title>Rioja La
77</title></rect><text x="-6" y="1.2402712210643416" dy=".35em" text-anchor="end" style="font-size: 11px; font-family: Arial, Helvetica; pointer-events: none;">Rioja La</text></g><g class="node" transform="translate(840,226.55950508985427)"><rect height="0.5427612606263456" width="8" style="fill: rgb(102, 102, 102);"><title>Salamanca
17</title></rect><text x="-6" y="0.2713806303131728" dy=".35em" text-anchor="end" style="font-size: 11px; font-family: Arial, Helvetica; pointer-events: none;">Salamanca</text></g><g class="node" transform="translate(840,317.73105730736995)"><rect height="0.34995604565022487" width="8" style="fill: rgb(102, 102, 102);"><title>Santa Cruz de Tenerife
11</title></rect><text x="-6" y="0.17497802282511243" dy=".35em" text-anchor="end" style="font-size: 11px; font-family: Arial, Helvetica; pointer-events: none;">Santa Cruz de Tenerife</text></g><g class="node" transform="translate(840,170.55640614413468)"><rect height="0.7589368389839674" width="8" style="fill: rgb(102, 102, 102);"><title>Segovia
23</title></rect><text x="-6" y="0.3794684194919837" dy=".35em" text-anchor="end" style="font-size: 11px; font-family: Arial, Helvetica; pointer-events: none;">Segovia</text></g><g class="node" transform="translate(840,281.5320926277923)"><rect height="0.3822285346708618" width="8" style="fill: rgb(102, 102, 102);"><title>Sevilla
12</title></rect><text x="-6" y="0.1911142673354309" dy=".35em" text-anchor="end" style="font-size: 11px; font-family: Arial, Helvetica; pointer-events: none;">Sevilla</text></g><g class="node" transform="translate(840,504.3207547169812)"><rect height="0" width="8" style="fill: rgb(102, 102, 102);"><title>Soria
0</title></rect><text x="-6" y="0" dy=".35em" text-anchor="end" style="font-size: 11px; font-family: Arial, Helvetica; pointer-events: none;">Soria</text></g><g class="node" transform="translate(840,272.4447322581721)"><rect height="0.40811508660132584" width="8" style="fill: rgb(102, 102, 102);"><title>Tarragona
13</title></rect><text x="-6" y="0.20405754330066292" dy=".35em" text-anchor="end" style="font-size: 11px; font-family: Arial, Helvetica; pointer-events: none;">Tarragona</text></g><g class="node" transform="translate(840,434.10653777148013)"><rect height="0.21755710713763102" width="8" style="fill: rgb(102, 102, 102);"><title>Teruel
7</title></rect><text x="-6" y="0.10877855356881551" dy=".35em" text-anchor="end" style="font-size: 11px; font-family: Arial, Helvetica; pointer-events: none;">Teruel</text></g><g class="node" transform="translate(840,263.32483313020504)"><rect height="0.4406538449482289" width="8" style="fill: rgb(102, 102, 102);"><title>Toledo
14</title></rect><text x="-6" y="0.22032692247411445" dy=".35em" text-anchor="end" style="font-size: 11px; font-family: Arial, Helvetica; pointer-events: none;">Toledo</text></g><g class="node" transform="translate(840,112.48383205352107)"><rect height="1.3505296306774257" width="8" style="fill: rgb(102, 102, 102);"><title>Valencia/València
42</title></rect><text x="-6" y="0.6752648153387129" dy=".35em" text-anchor="end" style="font-size: 11px; font-family: Arial, Helvetica; pointer-events: none;">Valencia/València</text></g><g class="node" transform="translate(840,102.387472929984)"><rect height="1.4171138405182087" width="8" style="fill: rgb(102, 102, 102);"><title>Valladolid
44</title></rect><text x="-6" y="0.7085569202591043" dy=".35em" text-anchor="end" style="font-size: 11px; font-family: Arial, Helvetica; pointer-events: none;">Valladolid</text></g><g class="node" transform="translate(840,407.408539193001)"><rect height="0.22011229032016727" width="8" style="fill: rgb(102, 102, 102);"><title>Zamora
7</title></rect><text x="-6" y="0.11005614516008363" dy=".35em" text-anchor="end" style="font-size: 11px; font-family: Arial, Helvetica; pointer-events: none;">Zamora</text></g><g class="node" transform="translate(840,41.11648155759903)"><rect height="7.424663690765857" width="8" style="fill: rgb(102, 102, 102);"><title>Zaragoza
230</title></rect><text x="-6" y="3.7123318453829284" dy=".35em" text-anchor="end" style="font-size: 11px; font-family: Arial, Helvetica; pointer-events: none;">Zaragoza</text></g><g class="node" transform="translate(0,225.6603773584906)"><rect height="61.6792452830188" width="8"><title>    Soria
1,908</title></rect><text x="14" y="30.8396226415094" dy=".35em" text-anchor="start" style="font-size: 11px; font-family: Arial, Helvetica; pointer-events: none;">    Soria</text></g></g></g></svg>