<svg width="1200" height="533" xmlns="http://www.w3.org/2000/svg" version="1.1"><g transform="translate(0,10)"><g><path class="link" d="M2,233.51695679409053C600,233.51695679409053 600,7.8565794355999 1198,7.8565794355999" style="stroke-width: 15.7132; fill: none; stroke: rgb(46, 34, 2); stroke-opacity: 0.4;"><title>816.582873</title></path><path class="link" d="M2,248.56588456282236C600,248.56588456282236 600,31.584752487350613 1198,31.584752487350613" style="stroke-width: 14.3847; fill: none; stroke: rgb(46, 34, 2); stroke-opacity: 0.4;"><title>747.545228</title></path><path class="link" d="M2,258.93209817065645C600,258.93209817065645 600,50.63021137820356 1198,50.63021137820356" style="stroke-width: 6.34773; fill: none; stroke: rgb(46, 34, 2); stroke-opacity: 0.4;"><title>329.87944</title></path><path class="link" d="M2,264.7917168436709C600,264.7917168436709 600,65.16907533423682 1198,65.16907533423682" style="stroke-width: 5.37151; fill: none; stroke: rgb(46, 34, 2); stroke-opacity: 0.4;"><title>279.146955</title></path><path class="link" d="M2,268.915339034125C600,268.915339034125 600,77.97194280770985 1198,77.97194280770985" style="stroke-width: 2.87574; fill: none; stroke: rgb(46, 34, 2); stroke-opacity: 0.4;"><title>149.446593</title></path><path class="link" d="M2,271.76405191020774C600,271.76405191020774 600,89.49990096681147 1198,89.49990096681147" style="stroke-width: 2.82169; fill: none; stroke: rgb(46, 34, 2); stroke-opacity: 0.4;"><title>146.637748</title></path><path class="link" d="M2,273.97757331113286C600,273.97757331113286 600,100.39266765075547 1198,100.39266765075547" style="stroke-width: 1.60535; fill: none; stroke: rgb(46, 34, 2); stroke-opacity: 0.4;"><title>83.427216</title></path><path class="link" d="M2,275.33917503419957C600,275.33917503419957 600,110.43351465684107 1198,110.43351465684107" style="stroke-width: 1.11785; fill: none; stroke: rgb(46, 34, 2); stroke-opacity: 0.4;"><title>58.092469</title></path><path class="link" d="M2,276.38042085000006C600,276.38042085000006 600,120.15400575566039 1198,120.15400575566039" style="stroke-width: 1; fill: none; stroke: rgb(46, 34, 2); stroke-opacity: 0.4;"><title>50.130646</title></path><path class="link" d="M2,277.2489492579531C600,277.2489492579531 600,129.7017794466323 1198,129.7017794466323" style="stroke-width: 1; fill: none; stroke: rgb(46, 34, 2); stroke-opacity: 0.4;"><title>40.140881</title></path><path class="link" d="M2,277.9777264005701C600,277.9777264005701 600,139.10980187226812 1198,139.10980187226812" style="stroke-width: 1; fill: none; stroke: rgb(46, 34, 2); stroke-opacity: 0.4;"><title>35.605433</title></path><path class="link" d="M2,278.61055203936155C600,278.61055203936155 600,148.4218727940785 1198,148.4218727940785" style="stroke-width: 1; fill: none; stroke: rgb(46, 34, 2); stroke-opacity: 0.4;"><title>30.168048</title></path><path class="link" d="M2,279.1805882351374C600,279.1805882351374 600,157.67115427287322 1198,157.67115427287322" style="stroke-width: 1; fill: none; stroke: rgb(46, 34, 2); stroke-opacity: 0.4;"><title>29.079338</title></path><path class="link" d="M2,279.7204774221562C600,279.7204774221562 600,166.89028874291085 1198,166.89028874291085" style="stroke-width: 1; fill: none; stroke: rgb(46, 34, 2); stroke-opacity: 0.4;"><title>27.034683</title></path><path class="link" d="M2,280.23099098722633C600,280.23099098722633 600,176.08004759099984 1198,176.08004759099984" style="stroke-width: 1; fill: none; stroke: rgb(46, 34, 2); stroke-opacity: 0.4;"><title>26.026148</title></path><path class="link" d="M2,280.7036518150648C600,280.7036518150648 600,185.2319537018572 1198,185.2319537018572" style="stroke-width: 1; fill: none; stroke: rgb(46, 34, 2); stroke-opacity: 0.4;"><title>23.100414</title></path><path class="link" d="M2,281.13973921954465C600,281.13973921954465 600,194.34728638935587 1198,194.34728638935587" style="stroke-width: 1; fill: none; stroke: rgb(46, 34, 2); stroke-opacity: 0.4;"><title>22.224846</title></path><path class="link" d="M2,281.5484227312208C600,281.5484227312208 600,203.43521518405095 1198,203.43521518405095" style="stroke-width: 1; fill: none; stroke: rgb(46, 34, 2); stroke-opacity: 0.4;"><title>20.252158</title></path><path class="link" d="M2,281.9381135403074C600,281.9381135403074 600,212.5041512761564 1198,212.5041512761564" style="stroke-width: 1; fill: none; stroke: rgb(46, 34, 2); stroke-opacity: 0.4;"><title>20.250817</title></path><path class="link" d="M2,282.30997820879696C600,282.30997820879696 600,221.55526122766477 1198,221.55526122766477" style="stroke-width: 1; fill: none; stroke: rgb(46, 34, 2); stroke-opacity: 0.4;"><title>18.399377</title></path><path class="link" d="M2,282.6635809308038C600,282.6635809308038 600,230.58810923269047 1198,230.58810923269047" style="stroke-width: 1; fill: none; stroke: rgb(46, 34, 2); stroke-opacity: 0.4;"><title>18.35274</title></path><path class="link" d="M2,282.9986743237571C600,282.9986743237571 600,239.60244790866264 1198,239.60244790866264" style="stroke-width: 1; fill: none; stroke: rgb(46, 34, 2); stroke-opacity: 0.4;"><title>16.475588</title></path><path class="link" d="M2,283.28887244642306C600,283.28887244642306 600,248.5718913143475 1198,248.5718913143475" style="stroke-width: 1; fill: none; stroke: rgb(46, 34, 2); stroke-opacity: 0.4;"><title>13.686497</title></path><path class="link" d="M2,283.55056011264827C600,283.55056011264827 600,257.5128242635916 1198,257.5128242635916" style="stroke-width: 1; fill: none; stroke: rgb(46, 34, 2); stroke-opacity: 0.4;"><title>13.51232</title></path><path class="link" d="M2,283.8099002229556C600,283.8099002229556 600,266.4514096569178 1198,266.4514096569178" style="stroke-width: 1; fill: none; stroke: rgb(46, 34, 2); stroke-opacity: 0.4;"><title>13.442501</title></path><path class="link" d="M2,284.06693829566103C600,284.06693829566103 600,275.3876930126421 1198,275.3876930126421" style="stroke-width: 1; fill: none; stroke: rgb(46, 34, 2); stroke-opacity: 0.4;"><title>13.273055</title></path><path class="link" d="M2,284.31593444320663C600,284.31593444320663 600,284.3159344432066 1198,284.3159344432066" style="stroke-width: 1; fill: none; stroke: rgb(46, 34, 2); stroke-opacity: 0.4;"><title>12.606654</title></path><path class="link" d="M2,284.557612840738C600,284.557612840738 600,293.23685812375675 1198,293.23685812375675" style="stroke-width: 1; fill: none; stroke: rgb(46, 34, 2); stroke-opacity: 0.4;"><title>12.512476</title></path><path class="link" d="M2,284.7894772160802C600,284.7894772160802 600,302.1479677821178 1198,302.1479677821178" style="stroke-width: 1; fill: none; stroke: rgb(46, 34, 2); stroke-opacity: 0.4;"><title>11.586622</title></path><path class="link" d="M2,285.0123887419064C600,285.0123887419064 600,311.05012459096287 1198,311.05012459096287" style="stroke-width: 1; fill: none; stroke: rgb(46, 34, 2); stroke-opacity: 0.4;"><title>11.581951</title></path><path class="link" d="M2,285.2352338134927C600,285.2352338134927 600,319.9522149455681 1198,319.9522149455681" style="stroke-width: 1; fill: none; stroke: rgb(46, 34, 2); stroke-opacity: 0.4;"><title>11.579715</title></path><path class="link" d="M2,285.4403278001538C600,285.4403278001538 600,328.83655421524804 1198,328.83655421524804" style="stroke-width: 1; fill: none; stroke: rgb(46, 34, 2); stroke-opacity: 0.4;"><title>9.736971</title></path><path class="link" d="M2,285.6274706368159C600,285.6274706368159 600,337.702942334929 1198,337.702942334929" style="stroke-width: 1; fill: none; stroke: rgb(46, 34, 2); stroke-opacity: 0.4;"><title>9.713941</title></path><path class="link" d="M2,285.8134064924522C600,285.8134064924522 600,346.5681234735842 1198,346.5681234735842" style="stroke-width: 1; fill: none; stroke: rgb(46, 34, 2); stroke-opacity: 0.4;"><title>9.611522</title></path><path class="link" d="M2,285.9900133927824C600,285.9900133927824 600,355.42397565693324 1198,355.42397565693324" style="stroke-width: 1; fill: none; stroke: rgb(46, 34, 2); stroke-opacity: 0.4;"><title>8.744325</title></path><path class="link" d="M2,286.1578521049874C600,286.1578521049874 600,364.27105965215713 1198,364.27105965215713" style="stroke-width: 1; fill: none; stroke: rgb(46, 34, 2); stroke-opacity: 0.4;"><title>8.70019</title></path><path class="link" d="M2,286.30753996772853C600,286.30753996772853 600,373.0999927979171 1198,373.0999927979171" style="stroke-width: 1; fill: none; stroke: rgb(46, 34, 2); stroke-opacity: 0.4;"><title>6.857795</title></path><path class="link" d="M2,286.4384458052351C600,286.4384458052351 600,381.91014391844254 1198,381.91014391844254" style="stroke-width: 1; fill: none; stroke: rgb(46, 34, 2); stroke-opacity: 0.4;"><title>6.748058</title></path><path class="link" d="M2,286.5679127309345C600,286.5679127309345 600,390.7188561271608 1198,390.7188561271608" style="stroke-width: 1; fill: none; stroke: rgb(46, 34, 2); stroke-opacity: 0.4;"><title>6.70824</title></path><path class="link" d="M2,286.6886754212137C600,286.6886754212137 600,399.51886410045887 1198,399.51886410045887" style="stroke-width: 1; fill: none; stroke: rgb(46, 34, 2); stroke-opacity: 0.4;"><title>5.843373</title></path><path class="link" d="M2,286.80087828199237C600,286.80087828199237 600,408.3103122442564 1198,408.3103122442564" style="stroke-width: 1; fill: none; stroke: rgb(46, 34, 2); stroke-opacity: 0.4;"><title>5.818564</title></path><path class="link" d="M2,286.90380501796017C600,286.90380501796017 600,417.0924842632431 1198,417.0924842632431" style="stroke-width: 1; fill: none; stroke: rgb(46, 34, 2); stroke-opacity: 0.4;"><title>4.879248</title></path><path class="link" d="M2,286.9973947456033C600,286.9973947456033 600,425.8653192739051 1198,425.8653192739051" style="stroke-width: 1; fill: none; stroke: rgb(46, 34, 2); stroke-opacity: 0.4;"><title>4.848111</title></path><path class="link" d="M2,287.08971010471583C600,287.08971010471583 600,434.6368799160365 1198,434.6368799160365" style="stroke-width: 1; fill: none; stroke: rgb(46, 34, 2); stroke-opacity: 0.4;"><title>4.746795</title></path><path class="link" d="M2,287.1727303947003C600,287.1727303947003 600,443.3991454890399 1198,443.3991454890399" style="stroke-width: 1; fill: none; stroke: rgb(46, 34, 2); stroke-opacity: 0.4;"><title>3.882017</title></path><path class="link" d="M2,287.23809377293185C600,287.23809377293185 600,452.14375415029025 1198,452.14375415029025" style="stroke-width: 1; fill: none; stroke: rgb(46, 34, 2); stroke-opacity: 0.4;"><title>2.911603</title></path><path class="link" d="M2,287.29367613961523C600,287.29367613961523 600,460.8785817999925 1198,460.8785817999925" style="stroke-width: 1; fill: none; stroke: rgb(46, 34, 2); stroke-opacity: 0.4;"><title>2.865416</title></path><path class="link" d="M2,287.3304338876198C600,287.3304338876198 600,469.5945848310159 1198,469.5945848310159" style="stroke-width: 1; fill: none; stroke: rgb(46, 34, 2); stroke-opacity: 0.4;"><title>0.955044</title></path><path class="link" d="M2,287.33962264150944C600,287.33962264150944 600,478.2830188679244 1198,478.2830188679244" style="stroke-width: 1; fill: none; stroke: rgb(46, 34, 2); stroke-opacity: 0.4;"><title>0</title></path><path class="link" d="M2,287.33962264150944C600,287.33962264150944 600,486.96226415094327 1198,486.96226415094327" style="stroke-width: 1; fill: none; stroke: rgb(46, 34, 2); stroke-opacity: 0.4;"><title>0</title></path><path class="link" d="M2,287.33962264150944C600,287.33962264150944 600,495.64150943396214 1198,495.64150943396214" style="stroke-width: 1; fill: none; stroke: rgb(46, 34, 2); stroke-opacity: 0.4;"><title>0</title></path><path class="link" d="M2,287.33962264150944C600,287.33962264150944 600,512.9999999999999 1198,512.9999999999999" style="stroke-width: 1; fill: none; stroke: rgb(46, 34, 2); stroke-opacity: 0.4;"><title>0</title></path><path class="link" d="M2,287.33962264150944C600,287.33962264150944 600,504.320754716981 1198,504.320754716981" style="stroke-width: 1; fill: none; stroke: rgb(46, 34, 2); stroke-opacity: 0.4;"><title>0</title></path></g><g><g class="node" transform="translate(1198,266.3220754761363)"><rect height="0.25866836156293255" width="2" style="fill: rgb(102, 102, 102);"><title>Albacete
13</title></rect><text x="-6" y="0.12933418078146627" dy=".35em" text-anchor="end" style="font-size: 11px; font-family: Arial, Helvetica; pointer-events: none;">Albacete</text></g><g class="node" transform="translate(1198,119.67168434594238)"><rect height="0.9646428194360096" width="2" style="fill: rgb(102, 102, 102);"><title>Alicante/Alacant
50</title></rect><text x="-6" y="0.4823214097180048" dy=".35em" text-anchor="end" style="font-size: 11px; font-family: Arial, Helvetica; pointer-events: none;">Alicante/Alacant</text></g><g class="node" transform="translate(1198,194.1334547332969)"><rect height="0.42766331211792324" width="2" style="fill: rgb(102, 102, 102);"><title>Almería
22</title></rect><text x="-6" y="0.21383165605896162" dy=".35em" text-anchor="end" style="font-size: 11px; font-family: Arial, Helvetica; pointer-events: none;">Almería</text></g><g class="node" transform="translate(1198,381.84521890535933)"><rect height="0.12985002616638375" width="2" style="fill: rgb(102, 102, 102);"><title>Araba/Álava
7</title></rect><text x="-6" y="0.06492501308319187" dy=".35em" text-anchor="end" style="font-size: 11px; font-family: Arial, Helvetica; pointer-events: none;">Araba/Álava</text></g><g class="node" transform="translate(1198,185.0096979534364)"><rect height="0.4445114968416539" width="2" style="fill: rgb(102, 102, 102);"><title>Asturias
23</title></rect><text x="-6" y="0.22225574842082696" dy=".35em" text-anchor="end" style="font-size: 11px; font-family: Arial, Helvetica; pointer-events: none;">Asturias</text></g><g class="node" transform="translate(1198,495.64150943396214)"><rect height="0" width="2" style="fill: rgb(102, 102, 102);"><title>Ávila
0</title></rect><text x="-6" y="0" dy=".35em" text-anchor="end" style="font-size: 11px; font-family: Arial, Helvetica; pointer-events: none;">Ávila</text></g><g class="node" transform="translate(1198,373.0340119734937)"><rect height="0.1319616488467787" width="2" style="fill: rgb(102, 102, 102);"><title>Badajoz
7</title></rect><text x="-6" y="0.06598082442338934" dy=".35em" text-anchor="end" style="font-size: 11px; font-family: Arial, Helvetica; pointer-events: none;">Badajoz</text></g><g class="node" transform="translate(1198,148.13161729966893)"><rect height="0.5805109888191122" width="2" style="fill: rgb(102, 102, 102);"><title>Balears Illes
30</title></rect><text x="-6" y="0.2902554944095561" dy=".35em" text-anchor="end" style="font-size: 11px; font-family: Arial, Helvetica; pointer-events: none;">Balears Illes</text></g><g class="node" transform="translate(1198,62.48332193592458)"><rect height="5.371506796624502" width="2" style="fill: rgb(102, 102, 102);"><title>Barcelona
279</title></rect><text x="-6" y="2.685753398312251" dy=".35em" text-anchor="end" style="font-size: 11px; font-family: Arial, Helvetica; pointer-events: none;">Barcelona</text></g><g class="node" transform="translate(1198,203.2403633284337)"><rect height="0.3897037112345119" width="2" style="fill: rgb(102, 102, 102);"><title>Bizkaia
20</title></rect><text x="-6" y="0.19485185561725596" dy=".35em" text-anchor="end" style="font-size: 11px; font-family: Arial, Helvetica; pointer-events: none;">Bizkaia</text></g><g class="node" transform="translate(1198,284.194642187585)"><rect height="0.2425845112431675" width="2" style="fill: rgb(102, 102, 102);"><title>Burgos
13</title></rect><text x="-6" y="0.12129225562158374" dy=".35em" text-anchor="end" style="font-size: 11px; font-family: Arial, Helvetica; pointer-events: none;">Burgos</text></g><g class="node" transform="translate(1198,443.3617954833769)"><rect height="0.07470001132597652" width="2" style="fill: rgb(102, 102, 102);"><title>Cáceres
4</title></rect><text x="-6" y="0.03735000566298826" dy=".35em" text-anchor="end" style="font-size: 11px; font-family: Arial, Helvetica; pointer-events: none;">Cáceres</text></g><g class="node" transform="translate(1198,248.44020957764815)"><rect height="0.2633634733987367" width="2" style="fill: rgb(102, 102, 102);"><title>Cádiz
14</title></rect><text x="-6" y="0.13168173669936836" dy=".35em" text-anchor="end" style="font-size: 11px; font-family: Arial, Helvetica; pointer-events: none;">Cádiz</text></g><g class="node" transform="translate(1198,328.7428720077795)"><rect height="0.1873644149370559" width="2" style="fill: rgb(102, 102, 102);"><title>Cantabria
10</title></rect><text x="-6" y="0.09368220746852796" dy=".35em" text-anchor="end" style="font-size: 11px; font-family: Arial, Helvetica; pointer-events: none;">Cantabria</text></g><g class="node" transform="translate(1198,88.08905688287061)"><rect height="2.82168816788172" width="2" style="fill: rgb(102, 102, 102);"><title>Castellón/Castelló
147</title></rect><text x="-6" y="1.41084408394086" dy=".35em" text-anchor="end" style="font-size: 11px; font-family: Arial, Helvetica; pointer-events: none;">Castellón/Castelló</text></g><g class="node" transform="translate(1198,504.320754716981)"><rect height="0" width="2" style="fill: rgb(102, 102, 102);"><title>Ceuta
0</title></rect><text x="-6" y="0" dy=".35em" text-anchor="end" style="font-size: 11px; font-family: Arial, Helvetica; pointer-events: none;">Ceuta</text></g><g class="node" transform="translate(1198,399.4626433227959)"><rect height="0.11244155532598271" width="2" style="fill: rgb(102, 102, 102);"><title>Ciudad Real
6</title></rect><text x="-6" y="0.056220777662991356" dy=".35em" text-anchor="end" style="font-size: 11px; font-family: Arial, Helvetica; pointer-events: none;">Ciudad Real</text></g><g class="node" transform="translate(1198,417.04553961039096)"><rect height="0.09388930570428937" width="2" style="fill: rgb(102, 102, 102);"><title>Córdoba
5</title></rect><text x="-6" y="0.046944652852144685" dy=".35em" text-anchor="end" style="font-size: 11px; font-family: Arial, Helvetica; pointer-events: none;">Córdoba</text></g><g class="node" transform="translate(1198,364.1873526138394)"><rect height="0.1674140766354572" width="2" style="fill: rgb(102, 102, 102);"><title>Coruña A
9</title></rect><text x="-6" y="0.0837070383177286" dy=".35em" text-anchor="end" style="font-size: 11px; font-family: Arial, Helvetica; pointer-events: none;">Coruña A</text></g><g class="node" transform="translate(1198,337.60948170573545)"><rect height="0.18692125838703635" width="2" style="fill: rgb(102, 102, 102);"><title>Cuenca
10</title></rect><text x="-6" y="0.09346062919351818" dy=".35em" text-anchor="end" style="font-size: 11px; font-family: Arial, Helvetica; pointer-events: none;">Cuenca</text></g><g class="node" transform="translate(1198,-1.7763568394002505e-15)"><rect height="15.713158871199804" width="2" style="fill: rgb(102, 102, 102);"><title>Extranjero
817</title></rect><text x="-6" y="7.856579435599902" dy=".35em" text-anchor="end" style="font-size: 11px; font-family: Arial, Helvetica; pointer-events: none;">Extranjero</text></g><g class="node" transform="translate(1198,275.2599891207181)"><rect height="0.2554077838480123" width="2" style="fill: rgb(102, 102, 102);"><title>Gipuzkoa
13</title></rect><text x="-6" y="0.12770389192400616" dy=".35em" text-anchor="end" style="font-size: 11px; font-family: Arial, Helvetica; pointer-events: none;">Gipuzkoa</text></g><g class="node" transform="translate(1198,239.443931522696)"><rect height="0.3170327719332818" width="2" style="fill: rgb(102, 102, 102);"><title>Girona
16</title></rect><text x="-6" y="0.1585163859666409" dy=".35em" text-anchor="end" style="font-size: 11px; font-family: Arial, Helvetica; pointer-events: none;">Girona</text></g><g class="node" transform="translate(1198,293.116471981847)"><rect height="0.2407722838194705" width="2" style="fill: rgb(102, 102, 102);"><title>Granada
13</title></rect><text x="-6" y="0.12038614190973525" dy=".35em" text-anchor="end" style="font-size: 11px; font-family: Arial, Helvetica; pointer-events: none;">Granada</text></g><g class="node" transform="translate(1198,166.6301802572584)"><rect height="0.5202169713049132" width="2" style="fill: rgb(102, 102, 102);"><title>Guadalajara
27</title></rect><text x="-6" y="0.2601084856524566" dy=".35em" text-anchor="end" style="font-size: 11px; font-family: Arial, Helvetica; pointer-events: none;">Guadalajara</text></g><g class="node" transform="translate(1198,434.59120963171495)"><rect height="0.0913405686430762" width="2" style="fill: rgb(102, 102, 102);"><title>Huelva
5</title></rect><text x="-6" y="0.0456702843215381" dy=".35em" text-anchor="end" style="font-size: 11px; font-family: Arial, Helvetica; pointer-events: none;">Huelva</text></g><g class="node" transform="translate(1198,109.87459025075862)"><rect height="1.117848812164898" width="2" style="fill: rgb(102, 102, 102);"><title>Huesca
58</title></rect><text x="-6" y="0.558924406082449" dy=".35em" text-anchor="end" style="font-size: 11px; font-family: Arial, Helvetica; pointer-events: none;">Huesca</text></g><g class="node" transform="translate(1198,425.8186741991141)"><rect height="0.09329014958192904" width="2" style="fill: rgb(102, 102, 102);"><title>Jaén
5</title></rect><text x="-6" y="0.04664507479096452" dy=".35em" text-anchor="end" style="font-size: 11px; font-family: Arial, Helvetica; pointer-events: none;">Jaén</text></g><g class="node" transform="translate(1198,408.25433016114073)"><rect height="0.11196416623134811" width="2" style="fill: rgb(102, 102, 102);"><title>León
6</title></rect><text x="-6" y="0.055982083115674056" dy=".35em" text-anchor="end" style="font-size: 11px; font-family: Arial, Helvetica; pointer-events: none;">León</text></g><g class="node" transform="translate(1198,138.76723172788618)"><rect height="0.6851402887638818" width="2" style="fill: rgb(102, 102, 102);"><title>Lleida
36</title></rect><text x="-6" y="0.3425701443819409" dy=".35em" text-anchor="end" style="font-size: 11px; font-family: Arial, Helvetica; pointer-events: none;">Lleida</text></g><g class="node" transform="translate(1198,319.8408031663755)"><rect height="0.22282355838513337" width="2" style="fill: rgb(102, 102, 102);"><title>Lugo
12</title></rect><text x="-6" y="0.11141177919256669" dy=".35em" text-anchor="end" style="font-size: 11px; font-family: Arial, Helvetica; pointer-events: none;">Lugo</text></g><g class="node" transform="translate(1198,76.53407401556795)"><rect height="2.87573758428379" width="2" style="fill: rgb(102, 102, 102);"><title>Madrid
149</title></rect><text x="-6" y="1.437868792141895" dy=".35em" text-anchor="end" style="font-size: 11px; font-family: Arial, Helvetica; pointer-events: none;">Madrid</text></g><g class="node" transform="translate(1198,257.38281833406575)"><rect height="0.26001185905167834" width="2" style="fill: rgb(102, 102, 102);"><title>Málaga
14</title></rect><text x="-6" y="0.13000592952583917" dy=".35em" text-anchor="end" style="font-size: 11px; font-family: Arial, Helvetica; pointer-events: none;">Málaga</text></g><g class="node" transform="translate(1198,460.85101280587764)"><rect height="0.05513798822973582" width="2" style="fill: rgb(102, 102, 102);"><title>Melilla
3</title></rect><text x="-6" y="0.02756899411486791" dy=".35em" text-anchor="end" style="font-size: 11px; font-family: Arial, Helvetica; pointer-events: none;">Melilla</text></g><g class="node" transform="translate(1198,129.31557244839726)"><rect height="0.7724139964700505" width="2" style="fill: rgb(102, 102, 102);"><title>Murcia
40</title></rect><text x="-6" y="0.38620699823502525" dy=".35em" text-anchor="end" style="font-size: 11px; font-family: Arial, Helvetica; pointer-events: none;">Murcia</text></g><g class="node" transform="translate(1198,175.82964251158216)"><rect height="0.5008101588353532" width="2" style="fill: rgb(102, 102, 102);"><title>Navarra
26</title></rect><text x="-6" y="0.2504050794176766" dy=".35em" text-anchor="end" style="font-size: 11px; font-family: Arial, Helvetica; pointer-events: none;">Navarra</text></g><g class="node" transform="translate(1198,390.65431421454457)"><rect height="0.129083825232442" width="2" style="fill: rgb(102, 102, 102);"><title>Ourense
7</title></rect><text x="-6" y="0.064541912616221" dy=".35em" text-anchor="end" style="font-size: 11px; font-family: Arial, Helvetica; pointer-events: none;">Ourense</text></g><g class="node" transform="translate(1198,346.47564824714135)"><rect height="0.18495045288567066" width="2" style="fill: rgb(102, 102, 102);"><title>Palencia
10</title></rect><text x="-6" y="0.09247522644283533" dy=".35em" text-anchor="end" style="font-size: 11px; font-family: Arial, Helvetica; pointer-events: none;">Palencia</text></g><g class="node" transform="translate(1198,221.3782355126446)"><rect height="0.3540514300403404" width="2" style="fill: rgb(102, 102, 102);"><title>Palmas Las
18</title></rect><text x="-6" y="0.1770257150201702" dy=".35em" text-anchor="end" style="font-size: 11px; font-family: Arial, Helvetica; pointer-events: none;">Palmas Las</text></g><g class="node" transform="translate(1198,310.93869129856915)"><rect height="0.22286658478747134" width="2" style="fill: rgb(102, 102, 102);"><title>Pontevedra
12</title></rect><text x="-6" y="0.11143329239373567" dy=".35em" text-anchor="end" style="font-size: 11px; font-family: Arial, Helvetica; pointer-events: none;">Pontevedra</text></g><g class="node" transform="translate(1198,157.3913735715069)"><rect height="0.5595614027326258" width="2" style="fill: rgb(102, 102, 102);"><title>Rioja La
29</title></rect><text x="-6" y="0.2797807013663129" dy=".35em" text-anchor="end" style="font-size: 11px; font-family: Arial, Helvetica; pointer-events: none;">Rioja La</text></g><g class="node" transform="translate(1198,486.96226415094327)"><rect height="0" width="2" style="fill: rgb(102, 102, 102);"><title>Salamanca
0</title></rect><text x="-6" y="0" dy=".35em" text-anchor="end" style="font-size: 11px; font-family: Arial, Helvetica; pointer-events: none;">Salamanca</text></g><g class="node" transform="translate(1198,230.4115322257038)"><rect height="0.35315401397332946" width="2" style="fill: rgb(102, 102, 102);"><title>Santa Cruz de Tenerife
18</title></rect><text x="-6" y="0.17657700698666473" dy=".35em" text-anchor="end" style="font-size: 11px; font-family: Arial, Helvetica; pointer-events: none;">Santa Cruz de Tenerife</text></g><g class="node" transform="translate(1198,469.58539607712623)"><rect height="0.018377507779282244" width="2" style="fill: rgb(102, 102, 102);"><title>Segovia
1</title></rect><text x="-6" y="0.009188753889641122" dy=".35em" text-anchor="end" style="font-size: 11px; font-family: Arial, Helvetica; pointer-events: none;">Segovia</text></g><g class="node" transform="translate(1198,212.30931232268708)"><rect height="0.38967790693865534" width="2" style="fill: rgb(102, 102, 102);"><title>Sevilla
20</title></rect><text x="-6" y="0.19483895346932767" dy=".35em" text-anchor="end" style="font-size: 11px; font-family: Arial, Helvetica; pointer-events: none;">Sevilla</text></g><g class="node" transform="translate(1198,302.0364895486853)"><rect height="0.22295646686498508" width="2" style="fill: rgb(102, 102, 102);"><title>Soria
12</title></rect><text x="-6" y="0.11147823343249254" dy=".35em" text-anchor="end" style="font-size: 11px; font-family: Arial, Helvetica; pointer-events: none;">Soria</text></g><g class="node" transform="translate(1198,99.5899903337712)"><rect height="1.6053546339685505" width="2" style="fill: rgb(102, 102, 102);"><title>Tarragona
83</title></rect><text x="-6" y="0.8026773169842752" dy=".35em" text-anchor="end" style="font-size: 11px; font-family: Arial, Helvetica; pointer-events: none;">Tarragona</text></g><g class="node" transform="translate(1198,478.2830188679244)"><rect height="0" width="2" style="fill: rgb(102, 102, 102);"><title>Teruel
0</title></rect><text x="-6" y="0" dy=".35em" text-anchor="end" style="font-size: 11px; font-family: Arial, Helvetica; pointer-events: none;">Teruel</text></g><g class="node" transform="translate(1198,355.3398439830459)"><rect height="0.16826334777462842" width="2" style="fill: rgb(102, 102, 102);"><title>Toledo
9</title></rect><text x="-6" y="0.08413167388731421" dy=".35em" text-anchor="end" style="font-size: 11px; font-family: Arial, Helvetica; pointer-events: none;">Toledo</text></g><g class="node" transform="translate(1198,47.45634610350142)"><rect height="6.3477305494042895" width="2" style="fill: rgb(102, 102, 102);"><title>Valencia/València
330</title></rect><text x="-6" y="3.1738652747021447" dy=".35em" text-anchor="end" style="font-size: 11px; font-family: Arial, Helvetica; pointer-events: none;">Valencia/València</text></g><g class="node" transform="translate(1198,452.1157407777217)"><rect height="0.05602674513706334" width="2" style="fill: rgb(102, 102, 102);"><title>Valladolid
3</title></rect><text x="-6" y="0.02801337256853167" dy=".35em" text-anchor="end" style="font-size: 11px; font-family: Arial, Helvetica; pointer-events: none;">Valladolid</text></g><g class="node" transform="translate(1198,512.9999999999999)"><rect height="0" width="2" style="fill: rgb(102, 102, 102);"><title>Zamora
0</title></rect><text x="-6" y="0" dy=".35em" text-anchor="end" style="font-size: 11px; font-family: Arial, Helvetica; pointer-events: none;">Zamora</text></g><g class="node" transform="translate(1198,24.392404154218674)"><rect height="14.384696666263878" width="2" style="fill: rgb(102, 102, 102);"><title>Zaragoza
748</title></rect><text x="-6" y="7.192348333131939" dy=".35em" text-anchor="end" style="font-size: 11px; font-family: Arial, Helvetica; pointer-events: none;">Zaragoza</text></g><g class="node" transform="translate(0,225.66037735849062)"><rect height="61.67924528301879" width="2"><title>    Teruel
3,205</title></rect><text x="8" y="30.839622641509393" dy=".35em" text-anchor="start" style="font-size: 11px; font-family: Arial, Helvetica; pointer-events: none;">    Teruel</text></g></g></g></svg>