<svg width="1200" height="533" xmlns="http://www.w3.org/2000/svg" version="1.1"><g transform="translate(0,10)"><g><path class="link" d="M2,234.85758159611325C600,234.85758159611325 600,9.19720423762268 1198,9.19720423762268" style="stroke-width: 18.3944; fill: none; stroke: rgb(46, 34, 2); stroke-opacity: 0.4;"><title>1037.586982</title></path><path class="link" d="M2,250.4479602719218C600,250.4479602719218 600,33.466828196450095 1198,33.466828196450095" style="stroke-width: 12.7863; fill: none; stroke: rgb(46, 34, 2); stroke-opacity: 0.4;"><title>721.249023</title></path><path class="link" d="M2,260.010992196867C600,260.010992196867 600,51.70910540441419 1198,51.70910540441419" style="stroke-width: 6.33971; fill: none; stroke: rgb(46, 34, 2); stroke-opacity: 0.4;"><title>357.608984</title></path><path class="link" d="M2,265.92416011024625C600,265.92416011024625 600,66.30151860081227 1198,66.30151860081227" style="stroke-width: 5.48662; fill: none; stroke: rgb(46, 34, 2); stroke-opacity: 0.4;"><title>309.487874</title></path><path class="link" d="M2,270.38007279986164C600,270.38007279986164 600,79.4366765734466 1198,79.4366765734466" style="stroke-width: 3.4252; fill: none; stroke: rgb(46, 34, 2); stroke-opacity: 0.4;"><title>193.208041</title></path><path class="link" d="M2,273.08635294379644C600,273.08635294379644 600,90.82220200040024 1198,90.82220200040024" style="stroke-width: 1.98736; fill: none; stroke: rgb(46, 34, 2); stroke-opacity: 0.4;"><title>112.102244</title></path><path class="link" d="M2,275.01687591838794C600,275.01687591838794 600,101.43197025801055 1198,101.43197025801055" style="stroke-width: 1.87369; fill: none; stroke: rgb(46, 34, 2); stroke-opacity: 0.4;"><title>105.690626</title></path><path class="link" d="M2,276.4086516423125C600,276.4086516423125 600,111.50299126495405 1198,111.50299126495405" style="stroke-width: 1; fill: none; stroke: rgb(46, 34, 2); stroke-opacity: 0.4;"><title>51.323216</title></path><path class="link" d="M2,277.23584922710825C600,277.23584922710825 600,121.00943413276863 1198,121.00943413276863" style="stroke-width: 1; fill: none; stroke: rgb(46, 34, 2); stroke-opacity: 0.4;"><title>41.997474</title></path><path class="link" d="M2,277.97838886190976C600,277.97838886190976 600,130.43121905058902 1198,130.43121905058902" style="stroke-width: 1; fill: none; stroke: rgb(46, 34, 2); stroke-opacity: 0.4;"><title>41.772489</title></path><path class="link" d="M2,278.6811546099696C600,278.6811546099696 600,139.81323008166777 1198,139.81323008166777" style="stroke-width: 1; fill: none; stroke: rgb(46, 34, 2); stroke-opacity: 0.4;"><title>37.510364</title></path><path class="link" d="M2,279.31872054499286C600,279.31872054499286 600,149.13004129970986 1198,149.13004129970986" style="stroke-width: 1; fill: none; stroke: rgb(46, 34, 2); stroke-opacity: 0.4;"><title>34.416941</title></path><path class="link" d="M2,279.8831929628118C600,279.8831929628118 600,158.3737590005477 1198,158.3737590005477" style="stroke-width: 1; fill: none; stroke: rgb(46, 34, 2); stroke-opacity: 0.4;"><title>29.264284</title></path><path class="link" d="M2,280.39249508687044C600,280.39249508687044 600,167.5623064076252 1198,167.5623064076252" style="stroke-width: 1; fill: none; stroke: rgb(46, 34, 2); stroke-opacity: 0.4;"><title>28.192878</title></path><path class="link" d="M2,280.89168695804904C600,280.89168695804904 600,176.74074356182268 1198,176.74074356182268" style="stroke-width: 1; fill: none; stroke: rgb(46, 34, 2); stroke-opacity: 0.4;"><title>28.123691</title></path><path class="link" d="M2,281.3405780357807C600,281.3405780357807 600,185.8688799225732 1198,185.8688799225732" style="stroke-width: 1; fill: none; stroke: rgb(46, 34, 2); stroke-opacity: 0.4;"><title>22.51817</title></path><path class="link" d="M2,281.7139686659159C600,281.7139686659159 600,194.92151583572726 1198,194.92151583572726" style="stroke-width: 1; fill: none; stroke: rgb(46, 34, 2); stroke-opacity: 0.4;"><title>19.606072</title></path><path class="link" d="M2,282.0594635401927C600,282.0594635401927 600,203.94625599302296 1198,203.94625599302296" style="stroke-width: 1; fill: none; stroke: rgb(46, 34, 2); stroke-opacity: 0.4;"><title>19.371097</title></path><path class="link" d="M2,282.40003607566126C600,282.40003607566126 600,212.96607381151037 1198,212.96607381151037" style="stroke-width: 1; fill: none; stroke: rgb(46, 34, 2); stroke-opacity: 0.4;"><title>19.050756</title></path><path class="link" d="M2,282.73210754348776C600,282.73210754348776 600,221.97739056235574 1198,221.97739056235574" style="stroke-width: 1; fill: none; stroke: rgb(46, 34, 2); stroke-opacity: 0.4;"><title>18.412045</title></path><path class="link" d="M2,283.0566582612941C600,283.0566582612941 600,230.9811865631809 1198,230.9811865631809" style="stroke-width: 1; fill: none; stroke: rgb(46, 34, 2); stroke-opacity: 0.4;"><title>18.202299</title></path><path class="link" d="M2,283.36254015760255C600,283.36254015760255 600,239.96631374250828 1198,239.96631374250828" style="stroke-width: 1; fill: none; stroke: rgb(46, 34, 2); stroke-opacity: 0.4;"><title>16.305913</title></path><path class="link" d="M2,283.6350431585303C600,283.6350431585303 600,248.9180620264549 1198,248.9180620264549" style="stroke-width: 1; fill: none; stroke: rgb(46, 34, 2); stroke-opacity: 0.4;"><title>14.436643</title></path><path class="link" d="M2,283.88313160148914C600,283.88313160148914 600,257.8453957524326 1198,257.8453957524326" style="stroke-width: 1; fill: none; stroke: rgb(46, 34, 2); stroke-opacity: 0.4;"><title>13.551573</title></path><path class="link" d="M2,284.1214398526644C600,284.1214398526644 600,266.76294928662674 1198,266.76294928662674" style="stroke-width: 1; fill: none; stroke: rgb(46, 34, 2); stroke-opacity: 0.4;"><title>13.333286</title></path><path class="link" d="M2,284.35313912588174C600,284.35313912588174 600,275.67389384286287 1198,275.67389384286287" style="stroke-width: 1; fill: none; stroke: rgb(46, 34, 2); stroke-opacity: 0.4;"><title>12.805978</title></path><path class="link" d="M2,284.57963387383126C600,284.57963387383126 600,284.57963387383126 1198,284.57963387383126" style="stroke-width: 1; fill: none; stroke: rgb(46, 34, 2); stroke-opacity: 0.4;"><title>12.746135</title></path><path class="link" d="M2,284.8026241735353C600,284.8026241735353 600,293.48186945655425 1198,293.48186945655425" style="stroke-width: 1; fill: none; stroke: rgb(46, 34, 2); stroke-opacity: 0.4;"><title>12.410622</title></path><path class="link" d="M2,285.01698547988724C600,285.01698547988724 600,302.375476045925 1198,302.375476045925" style="stroke-width: 1; fill: none; stroke: rgb(46, 34, 2); stroke-opacity: 0.4;"><title>11.772651</title></path><path class="link" d="M2,285.2255378314915C600,285.2255378314915 600,311.26327368054814 1198,311.26327368054814" style="stroke-width: 1; fill: none; stroke: rgb(46, 34, 2); stroke-opacity: 0.4;"><title>11.755282</title></path><path class="link" d="M2,285.42549176179C600,285.42549176179 600,320.1424728938655 1198,320.1424728938655" style="stroke-width: 1; fill: none; stroke: rgb(46, 34, 2); stroke-opacity: 0.4;"><title>10.802616</title></path><path class="link" d="M2,285.6161178850435C600,285.6161178850435 600,329.0123443001378 1198,329.0123443001378" style="stroke-width: 1; fill: none; stroke: rgb(46, 34, 2); stroke-opacity: 0.4;"><title>10.702961</title></path><path class="link" d="M2,285.8031326243691C600,285.8031326243691 600,337.8786043224823 1198,337.8786043224823" style="stroke-width: 1; fill: none; stroke: rgb(46, 34, 2); stroke-opacity: 0.4;"><title>10.395196</title></path><path class="link" d="M2,285.9817323392116C600,285.9817323392116 600,346.73644932034364 1198,346.73644932034364" style="stroke-width: 1; fill: none; stroke: rgb(46, 34, 2); stroke-opacity: 0.4;"><title>9.753616</title></path><path class="link" d="M2,286.15385148932796C600,286.15385148932796 600,355.58781375347894 1198,355.58781375347894" style="stroke-width: 1; fill: none; stroke: rgb(46, 34, 2); stroke-opacity: 0.4;"><title>9.664088</title></path><path class="link" d="M2,286.30963101077793C600,286.30963101077793 600,364.4228385579478 1198,364.4228385579478" style="stroke-width: 1; fill: none; stroke: rgb(46, 34, 2); stroke-opacity: 0.4;"><title>7.910253</title></path><path class="link" d="M2,286.44907826957194C600,286.44907826957194 600,373.24153109976066 1198,373.24153109976066" style="stroke-width: 1; fill: none; stroke: rgb(46, 34, 2); stroke-opacity: 0.4;"><title>7.821556</title></path><path class="link" d="M2,286.5801456852259C600,286.5801456852259 600,382.0518437984335 1198,382.0518437984335" style="stroke-width: 1; fill: none; stroke: rgb(46, 34, 2); stroke-opacity: 0.4;"><title>6.964877</title></path><path class="link" d="M2,286.6941291949003C600,286.6941291949003 600,390.8450725911268 1198,390.8450725911268" style="stroke-width: 1; fill: none; stroke: rgb(46, 34, 2); stroke-opacity: 0.4;"><title>5.894227</title></path><path class="link" d="M2,286.79817253474124C600,286.79817253474124 600,399.6283612139866 1198,399.6283612139866" style="stroke-width: 1; fill: none; stroke: rgb(46, 34, 2); stroke-opacity: 0.4;"><title>5.843472</title></path><path class="link" d="M2,286.89914831674713C600,286.89914831674713 600,408.40858227901134 1198,408.40858227901134" style="stroke-width: 1; fill: none; stroke: rgb(46, 34, 2); stroke-opacity: 0.4;"><title>5.548159</title></path><path class="link" d="M2,286.99180065744883C600,286.99180065744883 600,417.1804799027319 1198,417.1804799027319" style="stroke-width: 1; fill: none; stroke: rgb(46, 34, 2); stroke-opacity: 0.4;"><title>4.904459</title></path><path class="link" d="M2,287.07697184376127C600,287.07697184376127 600,425.9448963720632 1198,425.9448963720632" style="stroke-width: 1; fill: none; stroke: rgb(46, 34, 2); stroke-opacity: 0.4;"><title>4.704169</title></path><path class="link" d="M2,287.15254909819527C600,287.15254909819527 600,434.6997189095161 1198,434.6997189095161" style="stroke-width: 1; fill: none; stroke: rgb(46, 34, 2); stroke-opacity: 0.4;"><title>3.822115</title></path><path class="link" d="M2,287.2040553911337C600,287.2040553911337 600,443.4304704854734 1198,443.4304704854734" style="stroke-width: 1; fill: none; stroke: rgb(46, 34, 2); stroke-opacity: 0.4;"><title>1.988592</title></path><path class="link" d="M2,287.23880810511C600,287.23880810511 600,452.1444684824686 1198,452.1444684824686" style="stroke-width: 1; fill: none; stroke: rgb(46, 34, 2); stroke-opacity: 0.4;"><title>1.932052</title></path><path class="link" d="M2,287.2725872292648C600,287.2725872292648 600,460.85749288964223 1198,460.85749288964223" style="stroke-width: 1; fill: none; stroke: rgb(46, 34, 2); stroke-opacity: 0.4;"><title>1.878756</title></path><path class="link" d="M2,287.30555470946314C600,287.30555470946314 600,469.56970565285945 1198,469.56970565285945" style="stroke-width: 1; fill: none; stroke: rgb(46, 34, 2); stroke-opacity: 0.4;"><title>1.840486</title></path><path class="link" d="M2,287.3307457389094C600,287.3307457389094 600,478.27414196532465 1198,478.27414196532465" style="stroke-width: 1; fill: none; stroke: rgb(46, 34, 2); stroke-opacity: 0.4;"><title>1.001452</title></path><path class="link" d="M2,287.3396226415094C600,287.3396226415094 600,504.3207547169812 1198,504.3207547169812" style="stroke-width: 1; fill: none; stroke: rgb(46, 34, 2); stroke-opacity: 0.4;"><title>0</title></path><path class="link" d="M2,287.3396226415094C600,287.3396226415094 600,513 1198,513" style="stroke-width: 1; fill: none; stroke: rgb(46, 34, 2); stroke-opacity: 0.4;"><title>0</title></path><path class="link" d="M2,287.3396226415094C600,287.3396226415094 600,486.96226415094344 1198,486.96226415094344" style="stroke-width: 1; fill: none; stroke: rgb(46, 34, 2); stroke-opacity: 0.4;"><title>0</title></path><path class="link" d="M2,287.3396226415094C600,287.3396226415094 600,495.6415094339623 1198,495.6415094339623" style="stroke-width: 1; fill: none; stroke: rgb(46, 34, 2); stroke-opacity: 0.4;"><title>0</title></path></g><g><g class="node" transform="translate(1198,230.81984080190836)"><rect height="0.3226915225450951" width="2" style="fill: rgb(102, 102, 102);"><title>Albacete
18</title></rect><text x="-6" y="0.16134576127254754" dy=".35em" text-anchor="end" style="font-size: 11px; font-family: Arial, Helvetica; pointer-events: none;">Albacete</text></g><g class="node" transform="translate(1198,111.04806063468172)"><rect height="0.9098612605446591" width="2" style="fill: rgb(102, 102, 102);"><title>Alicante/Alacant
51</title></rect><text x="-6" y="0.45493063027232955" dy=".35em" text-anchor="end" style="font-size: 11px; font-family: Arial, Helvetica; pointer-events: none;">Alicante/Alacant</text></g><g class="node" transform="translate(1198,239.8217776074723)"><rect height="0.2890722700719211" width="2" style="fill: rgb(102, 102, 102);"><title>Almería
16</title></rect><text x="-6" y="0.14453613503596055" dy=".35em" text-anchor="end" style="font-size: 11px; font-family: Arial, Helvetica; pointer-events: none;">Almería</text></g><g class="node" transform="translate(1198,266.64476261251843)"><rect height="0.23637334821657421" width="2" style="fill: rgb(102, 102, 102);"><title>Araba/Álava
13</title></rect><text x="-6" y="0.11818667410828711" dy=".35em" text-anchor="end" style="font-size: 11px; font-family: Arial, Helvetica; pointer-events: none;">Araba/Álava</text></g><g class="node" transform="translate(1198,248.7900951605631)"><rect height="0.2559337317835505" width="2" style="fill: rgb(102, 102, 102);"><title>Asturias
14</title></rect><text x="-6" y="0.12796686589177525" dy=".35em" text-anchor="end" style="font-size: 11px; font-family: Arial, Helvetica; pointer-events: none;">Asturias</text></g><g class="node" transform="translate(1198,408.35940321995315)"><rect height="0.09835811811641333" width="2" style="fill: rgb(102, 102, 102);"><title>Ávila
6</title></rect><text x="-6" y="0.049179059058206666" dy=".35em" text-anchor="end" style="font-size: 11px; font-family: Arial, Helvetica; pointer-events: none;">Ávila</text></g><g class="node" transform="translate(1198,390.7928259742336)"><rect height="0.10449323378636997" width="2" style="fill: rgb(102, 102, 102);"><title>Badajoz
6</title></rect><text x="-6" y="0.05224661689318499" dy=".35em" text-anchor="end" style="font-size: 11px; font-family: Arial, Helvetica; pointer-events: none;">Badajoz</text></g><g class="node" transform="translate(1198,167.312403834144)"><rect height="0.4998051469623764" width="2" style="fill: rgb(102, 102, 102);"><title>Balears Illes
28</title></rect><text x="-6" y="0.2499025734811882" dy=".35em" text-anchor="end" style="font-size: 11px; font-family: Arial, Helvetica; pointer-events: none;">Balears Illes</text></g><g class="node" transform="translate(1198,63.55820817419241)"><rect height="5.486620853239723" width="2" style="fill: rgb(102, 102, 102);"><title>Barcelona
309</title></rect><text x="-6" y="2.7433104266198614" dy=".35em" text-anchor="end" style="font-size: 11px; font-family: Arial, Helvetica; pointer-events: none;">Barcelona</text></g><g class="node" transform="translate(1198,355.50215096795034)"><rect height="0.1713255710572485" width="2" style="fill: rgb(102, 102, 102);"><title>Bizkaia
10</title></rect><text x="-6" y="0.08566278552862425" dy=".35em" text-anchor="end" style="font-size: 11px; font-family: Arial, Helvetica; pointer-events: none;">Bizkaia</text></g><g class="node" transform="translate(1198,337.78646097222764)"><rect height="0.18428670050935228" width="2" style="fill: rgb(102, 102, 102);"><title>Burgos
10</title></rect><text x="-6" y="0.09214335025467614" dy=".35em" text-anchor="end" style="font-size: 11px; font-family: Arial, Helvetica; pointer-events: none;">Burgos</text></g><g class="node" transform="translate(1198,257.72527417536554)"><rect height="0.2402431541340466" width="2" style="fill: rgb(102, 102, 102);"><title>Cáceres
14</title></rect><text x="-6" y="0.1201215770670233" dy=".35em" text-anchor="end" style="font-size: 11px; font-family: Arial, Helvetica; pointer-events: none;">Cáceres</text></g><g class="node" transform="translate(1198,311.1590744844321)"><rect height="0.20839839223204445" width="2" style="fill: rgb(102, 102, 102);"><title>Cádiz
12</title></rect><text x="-6" y="0.10419919611602223" dy=".35em" text-anchor="end" style="font-size: 11px; font-family: Arial, Helvetica; pointer-events: none;">Cádiz</text></g><g class="node" transform="translate(1198,320.046718159683)"><rect height="0.19150946836495794" width="2" style="fill: rgb(102, 102, 102);"><title>Cantabria
11</title></rect><text x="-6" y="0.09575473418247897" dy=".35em" text-anchor="end" style="font-size: 11px; font-family: Arial, Helvetica; pointer-events: none;">Cantabria</text></g><g class="node" transform="translate(1198,77.724074310451)"><rect height="3.425204525991204" width="2" style="fill: rgb(102, 102, 102);"><title>Castellón/Castelló
193</title></rect><text x="-6" y="1.712602262995602" dy=".35em" text-anchor="end" style="font-size: 11px; font-family: Arial, Helvetica; pointer-events: none;">Castellón/Castelló</text></g><g class="node" transform="translate(1198,513)"><rect height="0" width="2" style="fill: rgb(102, 102, 102);"><title>Ceuta
0</title></rect><text x="-6" y="0" dy=".35em" text-anchor="end" style="font-size: 11px; font-family: Arial, Helvetica; pointer-events: none;">Ceuta</text></g><g class="node" transform="translate(1198,417.13700662108846)"><rect height="0.08694656328686803" width="2" style="fill: rgb(102, 102, 102);"><title>Ciudad Real
5</title></rect><text x="-6" y="0.04347328164343402" dy=".35em" text-anchor="end" style="font-size: 11px; font-family: Arial, Helvetica; pointer-events: none;">Ciudad Real</text></g><g class="node" transform="translate(1198,443.41284354229987)"><rect height="0.03525388634704857" width="2" style="fill: rgb(102, 102, 102);"><title>Córdoba
2</title></rect><text x="-6" y="0.017626943173524284" dy=".35em" text-anchor="end" style="font-size: 11px; font-family: Arial, Helvetica; pointer-events: none;">Córdoba</text></g><g class="node" transform="translate(1198,302.2711228904367)"><rect height="0.20870631097654402" width="2" style="fill: rgb(102, 102, 102);"><title>Coruña A
12</title></rect><text x="-6" y="0.10435315548827201" dy=".35em" text-anchor="end" style="font-size: 11px; font-family: Arial, Helvetica; pointer-events: none;">Coruña A</text></g><g class="node" transform="translate(1198,328.9174729110668)"><rect height="0.18974277814196844" width="2" style="fill: rgb(102, 102, 102);"><title>Cuenca
11</title></rect><text x="-6" y="0.09487138907098422" dy=".35em" text-anchor="end" style="font-size: 11px; font-family: Arial, Helvetica; pointer-events: none;">Cuenca</text></g><g class="node" transform="translate(1198,-1.7763568394002505e-15)"><rect height="18.394408475245363" width="2" style="fill: rgb(102, 102, 102);"><title>Extranjero
1,038</title></rect><text x="-6" y="9.197204237622682" dy=".35em" text-anchor="end" style="font-size: 11px; font-family: Arial, Helvetica; pointer-events: none;">Extranjero</text></g><g class="node" transform="translate(1198,212.79720730021762)"><rect height="0.33773302258550447" width="2" style="fill: rgb(102, 102, 102);"><title>Gipuzkoa
19</title></rect><text x="-6" y="0.16886651129275224" dy=".35em" text-anchor="end" style="font-size: 11px; font-family: Arial, Helvetica; pointer-events: none;">Gipuzkoa</text></g><g class="node" transform="translate(1198,176.49145426412525)"><rect height="0.4985785953948888" width="2" style="fill: rgb(102, 102, 102);"><title>Girona
28</title></rect><text x="-6" y="0.2492892976974444" dy=".35em" text-anchor="end" style="font-size: 11px; font-family: Arial, Helvetica; pointer-events: none;">Girona</text></g><g class="node" transform="translate(1198,203.77454996884714)"><rect height="0.34341204835162437" width="2" style="fill: rgb(102, 102, 102);"><title>Granada
19</title></rect><text x="-6" y="0.17170602417581218" dy=".35em" text-anchor="end" style="font-size: 11px; font-family: Arial, Helvetica; pointer-events: none;">Granada</text></g><g class="node" transform="translate(1198,185.669278142539)"><rect height="0.3992035600683894" width="2" style="fill: rgb(102, 102, 102);"><title>Guadalajara
23</title></rect><text x="-6" y="0.1996017800341947" dy=".35em" text-anchor="end" style="font-size: 11px; font-family: Arial, Helvetica; pointer-events: none;">Guadalajara</text></g><g class="node" transform="translate(1198,364.35272182202647)"><rect height="0.1402334718425901" width="2" style="fill: rgb(102, 102, 102);"><title>Huelva
8</title></rect><text x="-6" y="0.07011673592129505" dy=".35em" text-anchor="end" style="font-size: 11px; font-family: Arial, Helvetica; pointer-events: none;">Huelva</text></g><g class="node" transform="translate(1198,120.63716717824525)"><rect height="0.7445339090467663" width="2" style="fill: rgb(102, 102, 102);"><title>Huesca
42</title></rect><text x="-6" y="0.37226695452338315" dy=".35em" text-anchor="end" style="font-size: 11px; font-family: Arial, Helvetica; pointer-events: none;">Huesca</text></g><g class="node" transform="translate(1198,381.9901069056523)"><rect height="0.12347378556243442" width="2" style="fill: rgb(102, 102, 102);"><title>Jaén
7</title></rect><text x="-6" y="0.06173689278121721" dy=".35em" text-anchor="end" style="font-size: 11px; font-family: Arial, Helvetica; pointer-events: none;">Jaén</text></g><g class="node" transform="translate(1198,434.6658395597512)"><rect height="0.0677586995297927" width="2" style="fill: rgb(102, 102, 102);"><title>León
4</title></rect><text x="-6" y="0.03387934976489635" dy=".35em" text-anchor="end" style="font-size: 11px; font-family: Arial, Helvetica; pointer-events: none;">León</text></g><g class="node" transform="translate(1198,139.48073701388603)"><rect height="0.6649861355634651" width="2" style="fill: rgb(102, 102, 102);"><title>Lleida
38</title></rect><text x="-6" y="0.33249306778173254" dy=".35em" text-anchor="end" style="font-size: 11px; font-family: Arial, Helvetica; pointer-events: none;">Lleida</text></g><g class="node" transform="translate(1198,399.5765644910388)"><rect height="0.10359344589546804" width="2" style="fill: rgb(102, 102, 102);"><title>Lugo
6</title></rect><text x="-6" y="0.05179672294773402" dy=".35em" text-anchor="end" style="font-size: 11px; font-family: Arial, Helvetica; pointer-events: none;">Lugo</text></g><g class="node" transform="translate(1198,89.82852411946108)"><rect height="1.9873557618783073" width="2" style="fill: rgb(102, 102, 102);"><title>Madrid
112</title></rect><text x="-6" y="0.9936778809391537" dy=".35em" text-anchor="end" style="font-size: 11px; font-family: Arial, Helvetica; pointer-events: none;">Madrid</text></g><g class="node" transform="translate(1198,158.11435944997027)"><rect height="0.5187991011548633" width="2" style="fill: rgb(102, 102, 102);"><title>Málaga
29</title></rect><text x="-6" y="0.25939955057743164" dy=".35em" text-anchor="end" style="font-size: 11px; font-family: Arial, Helvetica; pointer-events: none;">Málaga</text></g><g class="node" transform="translate(1198,425.9031984673942)"><rect height="0.08339580933811919" width="2" style="fill: rgb(102, 102, 102);"><title>Melilla
5</title></rect><text x="-6" y="0.04169790466905959" dy=".35em" text-anchor="end" style="font-size: 11px; font-family: Arial, Helvetica; pointer-events: none;">Melilla</text></g><g class="node" transform="translate(1198,130.0609463703109)"><rect height="0.7405453605562813" width="2" style="fill: rgb(102, 102, 102);"><title>Murcia
42</title></rect><text x="-6" y="0.37027268027814064" dy=".35em" text-anchor="end" style="font-size: 11px; font-family: Arial, Helvetica; pointer-events: none;">Murcia</text></g><g class="node" transform="translate(1198,148.82496843246835)"><rect height="0.6101457344830292" width="2" style="fill: rgb(102, 102, 102);"><title>Navarra
34</title></rect><text x="-6" y="0.3050728672415146" dy=".35em" text-anchor="end" style="font-size: 11px; font-family: Arial, Helvetica; pointer-events: none;">Navarra</text></g><g class="node" transform="translate(1198,478.2652650627247)"><rect height="0.017753805199872314" width="2" style="fill: rgb(102, 102, 102);"><title>Ourense
1</title></rect><text x="-6" y="0.008876902599936157" dy=".35em" text-anchor="end" style="font-size: 11px; font-family: Arial, Helvetica; pointer-events: none;">Ourense</text></g><g class="node" transform="translate(1198,495.6415094339623)"><rect height="0" width="2" style="fill: rgb(102, 102, 102);"><title>Palencia
0</title></rect><text x="-6" y="0" dy=".35em" text-anchor="end" style="font-size: 11px; font-family: Arial, Helvetica; pointer-events: none;">Palencia</text></g><g class="node" transform="translate(1198,275.56038124375385)"><rect height="0.22702519821803785" width="2" style="fill: rgb(102, 102, 102);"><title>Palmas Las
13</title></rect><text x="-6" y="0.11351259910901892" dy=".35em" text-anchor="end" style="font-size: 11px; font-family: Arial, Helvetica; pointer-events: none;">Palmas Las</text></g><g class="node" transform="translate(1198,284.46665172499075)"><rect height="0.22596429768104162" width="2" style="fill: rgb(102, 102, 102);"><title>Pontevedra
13</title></rect><text x="-6" y="0.11298214884052081" dy=".35em" text-anchor="end" style="font-size: 11px; font-family: Arial, Helvetica; pointer-events: none;">Pontevedra</text></g><g class="node" transform="translate(1198,194.7477269856263)"><rect height="0.3475777002019777" width="2" style="fill: rgb(102, 102, 102);"><title>Rioja La
20</title></rect><text x="-6" y="0.17378885010098885" dy=".35em" text-anchor="end" style="font-size: 11px; font-family: Arial, Helvetica; pointer-events: none;">Rioja La</text></g><g class="node" transform="translate(1198,373.1722005768879)"><rect height="0.13866104574547006" width="2" style="fill: rgb(102, 102, 102);"><title>Salamanca
8</title></rect><text x="-6" y="0.06933052287273503" dy=".35em" text-anchor="end" style="font-size: 11px; font-family: Arial, Helvetica; pointer-events: none;">Salamanca</text></g><g class="node" transform="translate(1198,221.814185605822)"><rect height="0.326409913067509" width="2" style="fill: rgb(102, 102, 102);"><title>Santa Cruz de Tenerife
18</title></rect><text x="-6" y="0.1632049565337545" dy=".35em" text-anchor="end" style="font-size: 11px; font-family: Arial, Helvetica; pointer-events: none;">Santa Cruz de Tenerife</text></g><g class="node" transform="translate(1198,460.8408395362903)"><rect height="0.03330670670395716" width="2" style="fill: rgb(102, 102, 102);"><title>Segovia
2</title></rect><text x="-6" y="0.01665335335197858" dy=".35em" text-anchor="end" style="font-size: 11px; font-family: Arial, Helvetica; pointer-events: none;">Segovia</text></g><g class="node" transform="translate(1198,293.3718613056907)"><rect height="0.2200163017271419" width="2" style="fill: rgb(102, 102, 102);"><title>Sevilla
12</title></rect><text x="-6" y="0.11000815086357095" dy=".35em" text-anchor="end" style="font-size: 11px; font-family: Arial, Helvetica; pointer-events: none;">Sevilla</text></g><g class="node" transform="translate(1198,346.64999295575586)"><rect height="0.1729127291755948" width="2" style="fill: rgb(102, 102, 102);"><title>Soria
10</title></rect><text x="-6" y="0.0864563645877974" dy=".35em" text-anchor="end" style="font-size: 11px; font-family: Arial, Helvetica; pointer-events: none;">Soria</text></g><g class="node" transform="translate(1198,100.49512516435826)"><rect height="1.8736901873045935" width="2" style="fill: rgb(102, 102, 102);"><title>Tarragona
106</title></rect><text x="-6" y="0.9368450936522967" dy=".35em" text-anchor="end" style="font-size: 11px; font-family: Arial, Helvetica; pointer-events: none;">Tarragona</text></g><g class="node" transform="translate(1198,486.96226415094344)"><rect height="0" width="2" style="fill: rgb(102, 102, 102);"><title>Teruel
0</title></rect><text x="-6" y="0" dy=".35em" text-anchor="end" style="font-size: 11px; font-family: Arial, Helvetica; pointer-events: none;">Teruel</text></g><g class="node" transform="translate(1198,469.5533915260131)"><rect height="0.03262825369273035" width="2" style="fill: rgb(102, 102, 102);"><title>Toledo
2</title></rect><text x="-6" y="0.016314126846365174" dy=".35em" text-anchor="end" style="font-size: 11px; font-family: Arial, Helvetica; pointer-events: none;">Toledo</text></g><g class="node" transform="translate(1198,48.53924791765483)"><rect height="6.3397149735187055" width="2" style="fill: rgb(102, 102, 102);"><title>Valencia/València
358</title></rect><text x="-6" y="3.1698574867593527" dy=".35em" text-anchor="end" style="font-size: 11px; font-family: Arial, Helvetica; pointer-events: none;">Valencia/València</text></g><g class="node" transform="translate(1198,452.1273427116658)"><rect height="0.034251541605612355" width="2" style="fill: rgb(102, 102, 102);"><title>Valladolid
2</title></rect><text x="-6" y="0.017125770802806178" dy=".35em" text-anchor="end" style="font-size: 11px; font-family: Arial, Helvetica; pointer-events: none;">Valladolid</text></g><g class="node" transform="translate(1198,504.3207547169812)"><rect height="0" width="2" style="fill: rgb(102, 102, 102);"><title>Zamora
0</title></rect><text x="-6" y="0" dy=".35em" text-anchor="end" style="font-size: 11px; font-family: Arial, Helvetica; pointer-events: none;">Zamora</text></g><g class="node" transform="translate(1198,27.07365375826423)"><rect height="12.786348876371733" width="2" style="fill: rgb(102, 102, 102);"><title>Zaragoza
721</title></rect><text x="-6" y="6.393174438185866" dy=".35em" text-anchor="end" style="font-size: 11px; font-family: Arial, Helvetica; pointer-events: none;">Zaragoza</text></g><g class="node" transform="translate(0,225.66037735849056)"><rect height="61.67924528301885" width="2"><title>    Teruel
3,479</title></rect><text x="8" y="30.839622641509425" dy=".35em" text-anchor="start" style="font-size: 11px; font-family: Arial, Helvetica; pointer-events: none;">    Teruel</text></g></g></g></svg>