<svg width="848" height="533" xmlns="http://www.w3.org/2000/svg" version="1.1"><g transform="translate(0,10)"><g><path class="link" d="M2,235.74159786608422C424,235.74159786608422 424,10.081220507593628 846,10.081220507593628" style="stroke-width: 20.1624; fill: none; stroke: rgb(46, 34, 2); stroke-opacity: 0.4;"><title>1193.901398</title></path><path class="link" d="M2,252.3375907809021C424,252.3375907809021 424,35.35645870543038 846,35.35645870543038" style="stroke-width: 13.0295; fill: none; stroke: rgb(46, 34, 2); stroke-opacity: 0.4;"><title>771.533157</title></path><path class="link" d="M2,261.8934045884315C424,261.8934045884315 424,53.59151779597867 846,53.59151779597867" style="stroke-width: 6.08208; fill: none; stroke: rgb(46, 34, 2); stroke-opacity: 0.4;"><title>360.14524</title></path><path class="link" d="M2,267.61007539028924C424,267.61007539028924 424,67.98743388085528 846,67.98743388085528" style="stroke-width: 5.35126; fill: none; stroke: rgb(46, 34, 2); stroke-opacity: 0.4;"><title>316.870133</title></path><path class="link" d="M2,271.8398237650584C424,271.8398237650584 424,80.89642753864324 846,80.89642753864324" style="stroke-width: 3.10824; fill: none; stroke: rgb(46, 34, 2); stroke-opacity: 0.4;"><title>184.051605</title></path><path class="link" d="M2,274.2433883811832C424,274.2433883811832 424,91.97923743778695 846,91.97923743778695" style="stroke-width: 1.69889; fill: none; stroke: rgb(46, 34, 2); stroke-opacity: 0.4;"><title>100.598369</title></path><path class="link" d="M2,275.91673380477357C424,275.91673380477357 424,102.3318281443962 846,102.3318281443962" style="stroke-width: 1.6478; fill: none; stroke: rgb(46, 34, 2); stroke-opacity: 0.4;"><title>97.573017</title></path><path class="link" d="M2,277.38607697325114C424,277.38607697325114 424,112.48041659589265 846,112.48041659589265" style="stroke-width: 1.29089; fill: none; stroke: rgb(46, 34, 2); stroke-opacity: 0.4;"><title>76.438737</title></path><path class="link" d="M2,278.3711669047147C424,278.3711669047147 424,122.14475181037508 846,122.14475181037508" style="stroke-width: 1; fill: none; stroke: rgb(46, 34, 2); stroke-opacity: 0.4;"><title>40.223749</title></path><path class="link" d="M2,278.999518957983C424,278.999518957983 424,131.45234914666227 846,131.45234914666227" style="stroke-width: 1; fill: none; stroke: rgb(46, 34, 2); stroke-opacity: 0.4;"><title>34.190891</title></path><path class="link" d="M2,279.5768850132534C424,279.5768850132534 424,140.70896048495146 846,140.70896048495146" style="stroke-width: 1; fill: none; stroke: rgb(46, 34, 2); stroke-opacity: 0.4;"><title>34.185566</title></path><path class="link" d="M2,280.12035439539744C424,280.12035439539744 424,149.93167515011444 846,149.93167515011444" style="stroke-width: 1; fill: none; stroke: rgb(46, 34, 2); stroke-opacity: 0.4;"><title>30.176567</title></path><path class="link" d="M2,280.6299393650026C424,280.6299393650026 424,159.12050540273842 846,159.12050540273842" style="stroke-width: 1; fill: none; stroke: rgb(46, 34, 2); stroke-opacity: 0.4;"><title>30.172694</title></path><path class="link" d="M2,281.1309722626227C424,281.1309722626227 424,168.30078358337744 846,168.30078358337744" style="stroke-width: 1; fill: none; stroke: rgb(46, 34, 2); stroke-opacity: 0.4;"><title>29.16376</title></path><path class="link" d="M2,281.58949931727324C424,281.58949931727324 424,177.4385559210468 846,177.4385559210468" style="stroke-width: 1; fill: none; stroke: rgb(46, 34, 2); stroke-opacity: 0.4;"><title>25.138801</title></path><path class="link" d="M2,281.98861966416865C424,281.98861966416865 424,186.51692155096103 846,186.51692155096103" style="stroke-width: 1; fill: none; stroke: rgb(46, 34, 2); stroke-opacity: 0.4;"><title>22.128327</title></path><path class="link" d="M2,282.34528176653095C424,282.34528176653095 424,195.55282893634225 846,195.55282893634225" style="stroke-width: 1; fill: none; stroke: rgb(46, 34, 2); stroke-opacity: 0.4;"><title>20.110545</title></path><path class="link" d="M2,282.67648969930906C424,282.67648969930906 424,204.5632821521392 846,204.5632821521392" style="stroke-width: 1; fill: none; stroke: rgb(46, 34, 2); stroke-opacity: 0.4;"><title>19.113834</title></path><path class="link" d="M2,282.9907892268717C424,282.9907892268717 424,213.5568269627207 846,213.5568269627207" style="stroke-width: 1; fill: none; stroke: rgb(46, 34, 2); stroke-opacity: 0.4;"><title>18.108112</title></path><path class="link" d="M2,283.288109800179C424,283.288109800179 424,222.53339281904684 846,222.53339281904684" style="stroke-width: 1; fill: none; stroke: rgb(46, 34, 2); stroke-opacity: 0.4;"><title>17.103046</title></path><path class="link" d="M2,283.5769411581204C424,283.5769411581204 424,231.50146946000717 846,231.50146946000717" style="stroke-width: 1; fill: none; stroke: rgb(46, 34, 2); stroke-opacity: 0.4;"><title>17.102749</title></path><path class="link" d="M2,283.8573321150586C424,283.8573321150586 424,240.46110569996426 846,240.46110569996426" style="stroke-width: 1; fill: none; stroke: rgb(46, 34, 2); stroke-opacity: 0.4;"><title>16.103464</title></path><path class="link" d="M2,284.12923069015704C424,284.12923069015704 424,249.41224955808158 846,249.41224955808158" style="stroke-width: 1; fill: none; stroke: rgb(46, 34, 2); stroke-opacity: 0.4;"><title>16.097011</title></path><path class="link" d="M2,284.3840348824694C424,284.3840348824694 424,258.3462990334128 846,258.3462990334128" style="stroke-width: 1; fill: none; stroke: rgb(46, 34, 2); stroke-opacity: 0.4;"><title>14.079006</title></path><path class="link" d="M2,284.6048746306687C424,284.6048746306687 424,267.24638406463094 846,267.24638406463094" style="stroke-width: 1; fill: none; stroke: rgb(46, 34, 2); stroke-opacity: 0.4;"><title>12.074661</title></path><path class="link" d="M2,284.8087352388463C424,284.8087352388463 424,276.1294899558274 846,276.1294899558274" style="stroke-width: 1; fill: none; stroke: rgb(46, 34, 2); stroke-opacity: 0.4;"><title>12.068196</title></path><path class="link" d="M2,285.0040688619565C424,285.0040688619565 424,285.0040688619565 846,285.0040688619565" style="stroke-width: 1; fill: none; stroke: rgb(46, 34, 2); stroke-opacity: 0.4;"><title>11.064825</title></path><path class="link" d="M2,285.1908587050217C424,285.1908587050217 424,293.87010398804057 846,293.87010398804057" style="stroke-width: 1; fill: none; stroke: rgb(46, 34, 2); stroke-opacity: 0.4;"><title>11.056371</title></path><path class="link" d="M2,285.36918111806193C424,285.36918111806193 424,302.7276716840996 846,302.7276716840996" style="stroke-width: 1; fill: none; stroke: rgb(46, 34, 2); stroke-opacity: 0.4;"><title>10.062042</title></path><path class="link" d="M2,285.5305835914775C424,285.5305835914775 424,311.56831944053414 846,311.56831944053414" style="stroke-width: 1; fill: none; stroke: rgb(46, 34, 2); stroke-opacity: 0.4;"><title>9.052572</title></path><path class="link" d="M2,285.683459670901C424,285.683459670901 424,320.40044080297645 846,320.40044080297645" style="stroke-width: 1; fill: none; stroke: rgb(46, 34, 2); stroke-opacity: 0.4;"><title>9.052276</title></path><path class="link" d="M2,285.82785074003607C424,285.82785074003607 424,329.2240771551304 846,329.2240771551304" style="stroke-width: 1; fill: none; stroke: rgb(46, 34, 2); stroke-opacity: 0.4;"><title>8.047707</title></path><path class="link" d="M2,285.94678474331874C424,285.94678474331874 424,338.0222564414319 846,338.0222564414319" style="stroke-width: 1; fill: none; stroke: rgb(46, 34, 2); stroke-opacity: 0.4;"><title>6.03744</title></path><path class="link" d="M2,286.0487331469727C424,286.0487331469727 424,346.80345012810477 846,346.80345012810477" style="stroke-width: 1; fill: none; stroke: rgb(46, 34, 2); stroke-opacity: 0.4;"><title>6.036132</title></path><path class="link" d="M2,286.150668487866C424,286.150668487866 424,355.58463075201695 846,355.58463075201695" style="stroke-width: 1; fill: none; stroke: rgb(46, 34, 2); stroke-opacity: 0.4;"><title>6.035893</title></path><path class="link" d="M2,286.2525691579805C424,286.2525691579805 424,364.3657767051503 846,364.3657767051503" style="stroke-width: 1; fill: none; stroke: rgb(46, 34, 2); stroke-opacity: 0.4;"><title>6.032026</title></path><path class="link" d="M2,286.3544345409091C424,286.3544345409091 424,373.14688737109776 846,373.14688737109776" style="stroke-width: 1; fill: none; stroke: rgb(46, 34, 2); stroke-opacity: 0.4;"><title>6.031714</title></path><path class="link" d="M2,286.44785874599285C424,286.44785874599285 424,381.9195568592004 846,381.9195568592004" style="stroke-width: 1; fill: none; stroke: rgb(46, 34, 2); stroke-opacity: 0.4;"><title>5.032352</title></path><path class="link" d="M2,286.5328347478816C424,286.5328347478816 424,390.68377814410803 846,390.68377814410803" style="stroke-width: 1; fill: none; stroke: rgb(46, 34, 2); stroke-opacity: 0.4;"><title>5.031208</title></path><path class="link" d="M2,286.61778578106765C424,286.61778578106765 424,399.44797446031293 846,399.44797446031293" style="stroke-width: 1; fill: none; stroke: rgb(46, 34, 2); stroke-opacity: 0.4;"><title>5.029395</title></path><path class="link" d="M2,286.70271670081104C424,286.70271670081104 424,408.2121506630752 846,408.2121506630752" style="stroke-width: 1; fill: none; stroke: rgb(46, 34, 2); stroke-opacity: 0.4;"><title>5.028826</title></path><path class="link" d="M2,286.78764045165747C424,286.78764045165747 424,416.97631969694044 846,416.97631969694044" style="stroke-width: 1; fill: none; stroke: rgb(46, 34, 2); stroke-opacity: 0.4;"><title>5.028546</title></path><path class="link" d="M2,286.8641061705736C424,286.8641061705736 424,425.73203069887546 846,425.73203069887546" style="stroke-width: 1; fill: none; stroke: rgb(46, 34, 2); stroke-opacity: 0.4;"><title>4.027156</title></path><path class="link" d="M2,286.9320704473124C424,286.9320704473124 424,434.4792402586332 846,434.4792402586332" style="stroke-width: 1; fill: none; stroke: rgb(46, 34, 2); stroke-opacity: 0.4;"><title>4.021735</title></path><path class="link" d="M2,286.99997246695125C424,286.99997246695125 424,443.2263875612909 846,443.2263875612909" style="stroke-width: 1; fill: none; stroke: rgb(46, 34, 2); stroke-opacity: 0.4;"><title>4.019783</title></path><path class="link" d="M2,287.05940173688884C424,287.05940173688884 424,451.96506211424736 846,451.96506211424736" style="stroke-width: 1; fill: none; stroke: rgb(46, 34, 2); stroke-opacity: 0.4;"><title>3.018322</title></path><path class="link" d="M2,287.1103693017864C424,287.1103693017864 424,460.6952749621638 846,460.6952749621638" style="stroke-width: 1; fill: none; stroke: rgb(46, 34, 2); stroke-opacity: 0.4;"><title>3.017678</title></path><path class="link" d="M2,287.16131980150027C424,287.16131980150027 424,469.42547074489653 846,469.42547074489653" style="stroke-width: 1; fill: none; stroke: rgb(46, 34, 2); stroke-opacity: 0.4;"><title>3.016301</title></path><path class="link" d="M2,287.21225315159114C424,287.21225315159114 424,478.1556493780063 846,478.1556493780063" style="stroke-width: 1; fill: none; stroke: rgb(46, 34, 2); stroke-opacity: 0.4;"><title>3.015647</title></path><path class="link" d="M2,287.2547180752733C424,287.2547180752733 424,486.8773595847072 846,486.8773595847072" style="stroke-width: 1; fill: none; stroke: rgb(46, 34, 2); stroke-opacity: 0.4;"><title>2.0134</title></path><path class="link" d="M2,287.28870673657906C424,287.28870673657906 424,495.5905935290319 846,495.5905935290319" style="stroke-width: 1; fill: none; stroke: rgb(46, 34, 2); stroke-opacity: 0.4;"><title>2.011818</title></path><path class="link" d="M2,287.32265851479616C424,287.32265851479616 424,504.30379059026785 846,504.30379059026785" style="stroke-width: 1; fill: none; stroke: rgb(46, 34, 2); stroke-opacity: 0.4;"><title>2.009032</title></path><path class="link" d="M2,287.3396226415094C424,287.3396226415094 424,513 846,513" style="stroke-width: 1; fill: none; stroke: rgb(46, 34, 2); stroke-opacity: 0.4;"><title>0</title></path></g><g><g class="node" transform="translate(846,311.49188015112065)"><rect height="0.15287857882693906" width="2" style="fill: rgb(102, 102, 102);"><title>Albacete
9</title></rect><text x="-6" y="0.07643928941346953" dy=".35em" text-anchor="end" style="font-size: 11px; font-family: Arial, Helvetica; pointer-events: none;">Albacete</text></g><g class="node" transform="translate(846,111.83497320809711)"><rect height="1.2908867755910878" width="2" style="fill: rgb(102, 102, 102);"><title>Alicante/Alacant
76</title></rect><text x="-6" y="0.6454433877955439" dy=".35em" text-anchor="end" style="font-size: 11px; font-family: Arial, Helvetica; pointer-events: none;">Alicante/Alacant</text></g><g class="node" transform="translate(846,131.16364363706197)"><rect height="0.5774110192005965" width="2" style="fill: rgb(102, 102, 102);"><title>Almería
34</title></rect><text x="-6" y="0.2887055096002982" dy=".35em" text-anchor="end" style="font-size: 11px; font-family: Arial, Helvetica; pointer-events: none;">Almería</text></g><g class="node" transform="translate(846,390.64129497309193)"><rect height="0.08496634203215689" width="2" style="fill: rgb(102, 102, 102);"><title>Araba/Álava
5</title></rect><text x="-6" y="0.042483171016078444" dy=".35em" text-anchor="end" style="font-size: 11px; font-family: Arial, Helvetica; pointer-events: none;">Araba/Álava</text></g><g class="node" transform="translate(846,222.38897588615242)"><rect height="0.2888338657888349" width="2" style="fill: rgb(102, 102, 102);"><title>Asturias
17</title></rect><text x="-6" y="0.14441693289441745" dy=".35em" text-anchor="end" style="font-size: 11px; font-family: Arial, Helvetica; pointer-events: none;">Asturias</text></g><g class="node" transform="translate(846,425.6980256732322)"><rect height="0.06801005128646097" width="2" style="fill: rgb(102, 102, 102);"><title>Ávila
4</title></rect><text x="-6" y="0.034005025643230484" dy=".35em" text-anchor="end" style="font-size: 11px; font-family: Arial, Helvetica; pointer-events: none;">Ávila</text></g><g class="node" transform="translate(846,408.16968760550174)"><rect height="0.08492611514693953" width="2" style="fill: rgb(102, 102, 102);"><title>Badajoz
5</title></rect><text x="-6" y="0.04246305757346976" dy=".35em" text-anchor="end" style="font-size: 11px; font-family: Arial, Helvetica; pointer-events: none;">Badajoz</text></g><g class="node" transform="translate(846,149.67686631364035)"><rect height="0.5096176729481862" width="2" style="fill: rgb(102, 102, 102);"><title>Balears Illes
30</title></rect><text x="-6" y="0.2548088364740931" dy=".35em" text-anchor="end" style="font-size: 11px; font-family: Arial, Helvetica; pointer-events: none;">Balears Illes</text></g><g class="node" transform="translate(846,65.31180447930271)"><rect height="5.351258803105147" width="2" style="fill: rgb(102, 102, 102);"><title>Barcelona
317</title></rect><text x="-6" y="2.6756294015525737" dy=".35em" text-anchor="end" style="font-size: 11px; font-family: Arial, Helvetica; pointer-events: none;">Barcelona</text></g><g class="node" transform="translate(846,284.91063824792946)"><rect height="0.18686122805416916" width="2" style="fill: rgb(102, 102, 102);"><title>Bizkaia
11</title></rect><text x="-6" y="0.09343061402708458" dy=".35em" text-anchor="end" style="font-size: 11px; font-family: Arial, Helvetica; pointer-events: none;">Bizkaia</text></g><g class="node" transform="translate(846,381.87706402832777)"><rect height="0.08498566174529233" width="2" style="fill: rgb(102, 102, 102);"><title>Burgos
5</title></rect><text x="-6" y="0.042492830872646166" dy=".35em" text-anchor="end" style="font-size: 11px; font-family: Arial, Helvetica; pointer-events: none;">Burgos</text></g><g class="node" transform="translate(846,443.1924447927477)"><rect height="0.0678855370863319" width="2" style="fill: rgb(102, 102, 102);"><title>Cáceres
4</title></rect><text x="-6" y="0.03394276854316595" dy=".35em" text-anchor="end" style="font-size: 11px; font-family: Arial, Helvetica; pointer-events: none;">Cáceres</text></g><g class="node" transform="translate(846,293.7767447590025)"><rect height="0.18671845807615595" width="2" style="fill: rgb(102, 102, 102);"><title>Cádiz
11</title></rect><text x="-6" y="0.09335922903807797" dy=".35em" text-anchor="end" style="font-size: 11px; font-family: Arial, Helvetica; pointer-events: none;">Cádiz</text></g><g class="node" transform="translate(846,240.32512916807306)"><rect height="0.27195306378240075" width="2" style="fill: rgb(102, 102, 102);"><title>Cantabria
16</title></rect><text x="-6" y="0.13597653189120038" dy=".35em" text-anchor="end" style="font-size: 11px; font-family: Arial, Helvetica; pointer-events: none;">Cantabria</text></g><g class="node" transform="translate(846,79.34230856542672)"><rect height="3.1082379464330305" width="2" style="fill: rgb(102, 102, 102);"><title>Castellón/Castelló
184</title></rect><text x="-6" y="1.5541189732165153" dy=".35em" text-anchor="end" style="font-size: 11px; font-family: Arial, Helvetica; pointer-events: none;">Castellón/Castelló</text></g><g class="node" transform="translate(846,469.4000013086858)"><rect height="0.05093887242148144" width="2" style="fill: rgb(102, 102, 102);"><title>Ceuta
3</title></rect><text x="-6" y="0.02546943621074072" dy=".35em" text-anchor="end" style="font-size: 11px; font-family: Arial, Helvetica; pointer-events: none;">Ceuta</text></g><g class="node" transform="translate(846,399.40550659814295)"><rect height="0.08493572433992386" width="2" style="fill: rgb(102, 102, 102);"><title>Ciudad Real
5</title></rect><text x="-6" y="0.04246786216996193" dy=".35em" text-anchor="end" style="font-size: 11px; font-family: Arial, Helvetica; pointer-events: none;">Ciudad Real</text></g><g class="node" transform="translate(846,373.09595599688663)"><rect height="0.10186274842227733" width="2" style="fill: rgb(102, 102, 102);"><title>Córdoba
6</title></rect><text x="-6" y="0.050931374211138664" dy=".35em" text-anchor="end" style="font-size: 11px; font-family: Arial, Helvetica; pointer-events: none;">Córdoba</text></g><g class="node" transform="translate(846,364.31484269643283)"><rect height="0.10186801743495064" width="2" style="fill: rgb(102, 102, 102);"><title>Coruña A
6</title></rect><text x="-6" y="0.05093400871747532" dy=".35em" text-anchor="end" style="font-size: 11px; font-family: Arial, Helvetica; pointer-events: none;">Coruña A</text></g><g class="node" transform="translate(846,204.40188626498946)"><rect height="0.32279177429950606" width="2" style="fill: rgb(102, 102, 102);"><title>Cuenca
19</title></rect><text x="-6" y="0.16139588714975303" dy=".35em" text-anchor="end" style="font-size: 11px; font-family: Arial, Helvetica; pointer-events: none;">Cuenca</text></g><g class="node" transform="translate(846,-1.7763568394002505e-15)"><rect height="20.16244101518726" width="2" style="fill: rgb(102, 102, 102);"><title>Extranjero
1,194</title></rect><text x="-6" y="10.08122050759363" dy=".35em" text-anchor="end" style="font-size: 11px; font-family: Arial, Helvetica; pointer-events: none;">Extranjero</text></g><g class="node" transform="translate(846,195.38301689071395)"><rect height="0.33962409125662907" width="2" style="fill: rgb(102, 102, 102);"><title>Gipuzkoa
20</title></rect><text x="-6" y="0.16981204562831453" dy=".35em" text-anchor="end" style="font-size: 11px; font-family: Arial, Helvetica; pointer-events: none;">Gipuzkoa</text></g><g class="node" transform="translate(846,231.35705503496013)"><rect height="0.2888288500940786" width="2" style="fill: rgb(102, 102, 102);"><title>Girona
17</title></rect><text x="-6" y="0.1444144250470393" dy=".35em" text-anchor="end" style="font-size: 11px; font-family: Arial, Helvetica; pointer-events: none;">Girona</text></g><g class="node" transform="translate(846,434.4452810075376)"><rect height="0.0679185021912623" width="2" style="fill: rgb(102, 102, 102);"><title>Granada
4</title></rect><text x="-6" y="0.03395925109563115" dy=".35em" text-anchor="end" style="font-size: 11px; font-family: Arial, Helvetica; pointer-events: none;">Granada</text></g><g class="node" transform="translate(846,213.40392332230783)"><rect height="0.30580728082571906" width="2" style="fill: rgb(102, 102, 102);"><title>Guadalajara
18</title></rect><text x="-6" y="0.15290364041285953" dy=".35em" text-anchor="end" style="font-size: 11px; font-family: Arial, Helvetica; pointer-events: none;">Guadalajara</text></g><g class="node" transform="translate(846,416.9338590036675)"><rect height="0.08492138654582247" width="2" style="fill: rgb(102, 102, 102);"><title>Huelva
5</title></rect><text x="-6" y="0.042460693272911236" dy=".35em" text-anchor="end" style="font-size: 11px; font-family: Arial, Helvetica; pointer-events: none;">Huelva</text></g><g class="node" transform="translate(846,121.80510526670707)"><rect height="0.6792930873360091" width="2" style="fill: rgb(102, 102, 102);"><title>Huesca
40</title></rect><text x="-6" y="0.33964654366800456" dy=".35em" text-anchor="end" style="font-size: 11px; font-family: Arial, Helvetica; pointer-events: none;">Huesca</text></g><g class="node" transform="translate(846,267.14442646553664)"><rect height="0.20391519818865478" width="2" style="fill: rgb(102, 102, 102);"><title>Jaén
12</title></rect><text x="-6" y="0.10195759909432739" dy=".35em" text-anchor="end" style="font-size: 11px; font-family: Arial, Helvetica; pointer-events: none;">Jaén</text></g><g class="node" transform="translate(846,337.97127671727435)"><rect height="0.10195944831512138" width="2" style="fill: rgb(102, 102, 102);"><title>León
6</title></rect><text x="-6" y="0.05097972415756069" dy=".35em" text-anchor="end" style="font-size: 11px; font-family: Arial, Helvetica; pointer-events: none;">León</text></g><g class="node" transform="translate(846,140.42029993928142)"><rect height="0.5773210913400665" width="2" style="fill: rgb(102, 102, 102);"><title>Lleida
34</title></rect><text x="-6" y="0.28866054567003324" dy=".35em" text-anchor="end" style="font-size: 11px; font-family: Arial, Helvetica; pointer-events: none;">Lleida</text></g><g class="node" transform="translate(846,355.53366409062)"><rect height="0.10193332279394958" width="2" style="fill: rgb(102, 102, 102);"><title>Lugo
6</title></rect><text x="-6" y="0.05096666139697479" dy=".35em" text-anchor="end" style="font-size: 11px; font-family: Arial, Helvetica; pointer-events: none;">Lugo</text></g><g class="node" transform="translate(846,101.50792836371416)"><rect height="1.6477995613640815" width="2" style="fill: rgb(102, 102, 102);"><title>Madrid
98</title></rect><text x="-6" y="0.8238997806820407" dy=".35em" text-anchor="end" style="font-size: 11px; font-family: Arial, Helvetica; pointer-events: none;">Madrid</text></g><g class="node" transform="translate(846,258.22741688430773)"><rect height="0.23776429821004993" width="2" style="fill: rgb(102, 102, 102);"><title>Málaga
14</title></rect><text x="-6" y="0.11888214910502497" dy=".35em" text-anchor="end" style="font-size: 11px; font-family: Arial, Helvetica; pointer-events: none;">Málaga</text></g><g class="node" transform="translate(846,478.1301854641261)"><rect height="0.050927827760300866" width="2" style="fill: rgb(102, 102, 102);"><title>Melilla
3</title></rect><text x="-6" y="0.025463913880150433" dy=".35em" text-anchor="end" style="font-size: 11px; font-family: Arial, Helvetica; pointer-events: none;">Melilla</text></g><g class="node" transform="translate(846,158.8657292696074)"><rect height="0.5095522662620205" width="2" style="fill: rgb(102, 102, 102);"><title>Murcia
30</title></rect><text x="-6" y="0.2547761331310103" dy=".35em" text-anchor="end" style="font-size: 11px; font-family: Arial, Helvetica; pointer-events: none;">Murcia</text></g><g class="node" transform="translate(846,177.22628563088543)"><rect height="0.4245405803227232" width="2" style="fill: rgb(102, 102, 102);"><title>Navarra
25</title></rect><text x="-6" y="0.2122702901613616" dy=".35em" text-anchor="end" style="font-size: 11px; font-family: Arial, Helvetica; pointer-events: none;">Navarra</text></g><g class="node" transform="translate(846,486.86035857490526)"><rect height="0.03400201960394892" width="2" style="fill: rgb(102, 102, 102);"><title>Ourense
2</title></rect><text x="-6" y="0.01700100980197446" dy=".35em" text-anchor="end" style="font-size: 11px; font-family: Arial, Helvetica; pointer-events: none;">Ourense</text></g><g class="node" transform="translate(846,346.75248144860836)"><rect height="0.10193735899276023" width="2" style="fill: rgb(102, 102, 102);"><title>Palencia
6</title></rect><text x="-6" y="0.050968679496380113" dy=".35em" text-anchor="end" style="font-size: 11px; font-family: Arial, Helvetica; pointer-events: none;">Palencia</text></g><g class="node" transform="translate(846,249.27632751487434)"><rect height="0.27184408641451346" width="2" style="fill: rgb(102, 102, 102);"><title>Palmas Las
16</title></rect><text x="-6" y="0.13592204320725673" dy=".35em" text-anchor="end" style="font-size: 11px; font-family: Arial, Helvetica; pointer-events: none;">Palmas Las</text></g><g class="node" transform="translate(846,460.66979389866066)"><rect height="0.050962127006260745" width="2" style="fill: rgb(102, 102, 102);"><title>Pontevedra
3</title></rect><text x="-6" y="0.025481063503130372" dy=".35em" text-anchor="end" style="font-size: 11px; font-family: Arial, Helvetica; pointer-events: none;">Pontevedra</text></g><g class="node" transform="translate(846,329.1561228760053)"><rect height="0.13590855825014256" width="2" style="fill: rgb(102, 102, 102);"><title>Rioja La
8</title></rect><text x="-6" y="0.06795427912507128" dy=".35em" text-anchor="end" style="font-size: 11px; font-family: Arial, Helvetica; pointer-events: none;">Rioja La</text></g><g class="node" transform="translate(846,302.6427085000975)"><rect height="0.16992636800425023" width="2" style="fill: rgb(102, 102, 102);"><title>Salamanca
10</title></rect><text x="-6" y="0.08496318400212512" dy=".35em" text-anchor="end" style="font-size: 11px; font-family: Arial, Helvetica; pointer-events: none;">Salamanca</text></g><g class="node" transform="translate(846,186.330071494227)"><rect height="0.37370011346806015" width="2" style="fill: rgb(102, 102, 102);"><title>Santa Cruz de Tenerife
22</title></rect><text x="-6" y="0.18685005673403007" dy=".35em" text-anchor="end" style="font-size: 11px; font-family: Arial, Helvetica; pointer-events: none;">Santa Cruz de Tenerife</text></g><g class="node" transform="translate(846,451.93957561285293)"><rect height="0.05097300278883" width="2" style="fill: rgb(102, 102, 102);"><title>Segovia
3</title></rect><text x="-6" y="0.025486501394415" dy=".35em" text-anchor="end" style="font-size: 11px; font-family: Arial, Helvetica; pointer-events: none;">Segovia</text></g><g class="node" transform="translate(846,168.0545268188883)"><rect height="0.49251352897827627" width="2" style="fill: rgb(102, 102, 102);"><title>Sevilla
29</title></rect><text x="-6" y="0.24625676448913814" dy=".35em" text-anchor="end" style="font-size: 11px; font-family: Arial, Helvetica; pointer-events: none;">Sevilla</text></g><g class="node" transform="translate(846,320.32400401296644)"><rect height="0.1528735800200439" width="2" style="fill: rgb(102, 102, 102);"><title>Soria
9</title></rect><text x="-6" y="0.07643679001002195" dy=".35em" text-anchor="end" style="font-size: 11px; font-family: Arial, Helvetica; pointer-events: none;">Soria</text></g><g class="node" transform="translate(846,91.12979179487861)"><rect height="1.6988912858166723" width="2" style="fill: rgb(102, 102, 102);"><title>Tarragona
101</title></rect><text x="-6" y="0.8494456429083361" dy=".35em" text-anchor="end" style="font-size: 11px; font-family: Arial, Helvetica; pointer-events: none;">Tarragona</text></g><g class="node" transform="translate(846,513)"><rect height="0" width="2" style="fill: rgb(102, 102, 102);"><title>Teruel
0</title></rect><text x="-6" y="0" dy=".35em" text-anchor="end" style="font-size: 11px; font-family: Arial, Helvetica; pointer-events: none;">Teruel</text></g><g class="node" transform="translate(846,276.0275869467442)"><rect height="0.2038060181664339" width="2" style="fill: rgb(102, 102, 102);"><title>Toledo
12</title></rect><text x="-6" y="0.10190300908321695" dy=".35em" text-anchor="end" style="font-size: 11px; font-family: Arial, Helvetica; pointer-events: none;">Toledo</text></g><g class="node" transform="translate(846,50.55047639567349)"><rect height="6.0820828006103556" width="2" style="fill: rgb(102, 102, 102);"><title>Valencia/València
360</title></rect><text x="-6" y="3.0410414003051778" dy=".35em" text-anchor="end" style="font-size: 11px; font-family: Arial, Helvetica; pointer-events: none;">Valencia/València</text></g><g class="node" transform="translate(846,504.2868264635546)"><rect height="0.033928253426522656" width="2" style="fill: rgb(102, 102, 102);"><title>Valladolid
2</title></rect><text x="-6" y="0.016964126713261328" dy=".35em" text-anchor="end" style="font-size: 11px; font-family: Arial, Helvetica; pointer-events: none;">Valladolid</text></g><g class="node" transform="translate(846,495.57360587752805)"><rect height="0.033975303007637486" width="2" style="fill: rgb(102, 102, 102);"><title>Zamora
2</title></rect><text x="-6" y="0.016987651503818743" dy=".35em" text-anchor="end" style="font-size: 11px; font-family: Arial, Helvetica; pointer-events: none;">Zamora</text></g><g class="node" transform="translate(846,28.841686298206128)"><rect height="13.029544814448496" width="2" style="fill: rgb(102, 102, 102);"><title>Zaragoza
772</title></rect><text x="-6" y="6.514772407224248" dy=".35em" text-anchor="end" style="font-size: 11px; font-family: Arial, Helvetica; pointer-events: none;">Zaragoza</text></g><g class="node" transform="translate(0,225.6603773584906)"><rect height="61.67924528301882" width="2"><title>    Teruel
3,652</title></rect><text x="8" y="30.83962264150941" dy=".35em" text-anchor="start" style="font-size: 11px; font-family: Arial, Helvetica; pointer-events: none;">    Teruel</text></g></g></g></svg>